<?xml version="1.0" standalone="no"?>
<!DOCTYPE svg PUBLIC "-//W3C//DTD SVG 20010904//EN"
 "http://www.w3.org/TR/2001/REC-SVG-20010904/DTD/svg10.dtd">
<svg version="1.0" xmlns="http://www.w3.org/2000/svg"
 width="260.000000pt" height="260.000000pt" viewBox="0 0 260.000000 260.000000"
 preserveAspectRatio="xMidYMid meet">
<metadata>
Created by potrace 1.14, written by Peter Selinger 2001-2017
</metadata>
<g transform="translate(0.000000,260.000000) scale(0.100000,-0.100000)"
fill="#000000" stroke="none">
<path d="M0 1960 l0 -640 290 0 c187 0 290 -4 290 -10 0 -6 -103 -10 -290 -10
l-290 0 0 -215 0 -214 98 -3 97 -3 3 -28 c4 -33 -24 -49 -43 -24 -8 11 -26 17
-49 17 -34 0 -36 -1 -36 -34 0 -34 1 -35 42 -38 31 -2 44 -8 46 -20 3 -15 -4
-18 -41 -18 -44 0 -45 -1 -49 -36 -3 -24 0 -38 9 -41 7 -3 13 -11 13 -19 0
-10 -13 -14 -45 -14 l-45 0 0 -70 0 -69 138 -4 137 -3 -137 -2 c-130 -2 -138
-3 -138 -22 0 -18 8 -20 138 -23 l137 -3 -137 -2 -138 -2 0 -205 0 -205 1300
0 1300 0 0 650 0 650 -314 0 c-199 0 -317 4 -321 10 -4 7 103 10 314 10 l321
0 0 640 0 640 -1300 0 -1300 0 0 -640z m1650 -27 c0 -6 8 -14 18 -17 9 -3 22
-14 29 -25 11 -18 10 -19 -19 -10 -41 11 -53 2 -33 -27 20 -32 13 -42 -25 -36
-26 4 -31 8 -26 26 8 34 -8 52 -36 39 -13 -7 -37 -15 -55 -18 -28 -6 -31 -4
-26 15 3 11 17 27 32 35 14 7 38 29 53 49 l28 34 30 -26 c16 -15 30 -32 30
-39z m-647 12 c25 -25 49 -45 54 -45 5 0 9 -9 9 -19 0 -16 -6 -18 -36 -14 -19
3 -39 10 -44 14 -23 21 -39 9 -33 -25 5 -32 3 -34 -25 -38 -32 -5 -49 15 -29
35 20 20 13 39 -11 32 -63 -18 -64 -18 -28 19 67 69 85 86 92 86 4 0 27 -20
51 -45z m-373 -203 c-7 -3 -16 0 -22 6 -7 7 -17 7 -32 -1 -11 -7 -23 -13 -25
-14 -2 -1 6 -15 18 -31 24 -34 26 -44 9 -40 -7 2 -14 -1 -15 -6 0 -5 -9 -13
-18 -18 -15 -9 -15 -11 2 -24 16 -12 15 -13 -14 -14 -17 0 -35 5 -38 10 -5 8
-11 7 -21 -1 -20 -16 -17 -25 9 -34 59 -20 62 -24 25 -22 -20 0 -43 -5 -51
-11 -10 -9 -22 -10 -40 -3 -14 5 -27 8 -29 6 -2 -2 -34 -6 -71 -8 -59 -4 -65
-3 -49 9 10 7 31 16 46 20 15 3 33 16 41 28 8 12 35 27 60 35 28 8 45 19 45
28 0 37 23 91 36 86 8 -3 14 0 14 7 0 10 4 9 16 0 13 -11 19 -9 42 13 l26 27
24 -23 c14 -13 19 -23 12 -25z m387 6 c-23 -14 -98 -21 -110 -9 -17 17 -1 24
22 9 18 -11 24 -10 48 15 26 25 29 26 40 10 10 -13 10 -18 0 -25z m584 -8 c8
0 20 5 27 12 9 9 12 8 12 -4 0 -24 -19 -27 -73 -11 -26 8 -53 11 -59 7 -6 -4
-3 4 8 19 l19 25 26 -24 c14 -13 32 -24 40 -24z m372 25 c19 -27 16 -31 -13
-15 -13 7 -21 7 -25 0 -3 -5 -12 -10 -20 -10 -9 0 -7 8 8 25 27 30 28 30 50 0z
m103 -60 c4 -16 7 -37 6 -46 -1 -15 48 -39 81 -39 8 0 18 -9 22 -19 3 -11 25
-27 51 -37 57 -22 64 -34 17 -28 -64 7 -120 7 -131 0 -7 -4 -22 -1 -34 5 -13
7 -36 12 -53 12 -21 -1 -24 0 -7 4 12 2 22 9 22 14 0 5 9 9 21 9 12 0 19 5 16
13 -3 8 -20 11 -53 8 -45 -3 -47 -2 -34 15 12 13 12 18 3 21 -7 3 -13 11 -13
20 0 10 -6 12 -21 8 -25 -8 -22 -1 24 56 25 33 31 35 52 25 13 -6 27 -24 31
-41z m-1663 -12 c9 -16 -13 -53 -31 -53 -10 0 -31 -13 -46 -29 -15 -16 -40
-31 -54 -34 -15 -3 -38 -8 -52 -12 -23 -7 -22 -4 10 23 19 17 42 31 51 32 15
0 40 20 71 59 18 21 43 28 51 14z m1777 -23 c12 -17 41 -40 65 -51 35 -17 89
-59 74 -59 -28 1 -104 35 -123 55 -13 14 -33 25 -45 25 -24 0 -37 21 -27 45 9
24 33 17 56 -15z m-2000 -105 c-7 -8 -22 -15 -34 -15 -12 0 -26 -4 -32 -10 -5
-5 -22 -6 -38 -2 -29 8 -29 8 20 24 27 9 60 17 73 17 20 1 21 -1 11 -14z
m2255 -6 c5 -5 18 -9 30 -10 16 -1 14 -2 -7 -9 -29 -9 -90 7 -111 29 -10 11
-3 12 33 6 25 -4 49 -11 55 -16z m-2225 -374 c0 -28 -4 -35 -19 -35 -10 0 -22
7 -25 16 -4 11 -17 14 -43 12 -35 -3 -38 -6 -41 -35 -3 -33 -3 -33 42 -33 39
0 46 -3 46 -20 0 -17 -7 -20 -46 -20 l-45 0 3 -37 c3 -37 4 -38 46 -41 33 -2
42 0 42 12 0 9 9 16 20 16 16 0 20 -7 20 -35 l0 -35 -99 0 c-102 0 -131 11
-98 35 25 18 25 182 0 200 -33 24 -4 35 98 35 l99 0 0 -35z m140 15 c0 -11 -4
-20 -9 -20 -9 0 29 -143 41 -155 11 -12 48 132 42 164 l-6 31 46 0 c38 0 46
-3 46 -19 0 -10 -6 -21 -14 -24 -7 -3 -16 -17 -20 -31 -3 -14 -20 -65 -37
-112 -29 -79 -33 -85 -57 -82 -23 3 -29 15 -64 113 -22 61 -43 112 -49 113 -5
2 -9 12 -9 23 0 16 7 19 45 19 38 0 45 -3 45 -20z m408 -17 c3 -27 0 -33 -16
-33 -11 0 -22 7 -26 15 -3 10 -19 15 -46 15 -39 0 -40 -1 -40 -35 0 -35 0 -35
45 -35 38 0 45 -3 45 -20 0 -17 -7 -20 -45 -20 l-45 0 0 -40 0 -40 40 0 c27 0
43 5 46 15 4 8 15 15 26 15 16 0 19 -6 16 -32 l-3 -33 -102 -3 c-88 -2 -103 0
-103 13 0 9 7 18 15 21 12 5 15 26 15 99 0 73 -3 94 -15 99 -8 3 -15 12 -15
21 0 13 15 15 103 13 l102 -3 3 -32z m204 27 c56 -16 77 -72 42 -111 -15 -17
-15 -19 0 -34 9 -9 16 -30 16 -46 0 -16 5 -29 10 -29 6 0 10 -9 10 -20 0 -13
-7 -20 -19 -20 -28 0 -51 27 -51 59 0 35 -17 51 -52 51 -25 0 -28 -3 -28 -34
0 -19 5 -38 10 -41 6 -3 10 -13 10 -21 0 -10 -13 -14 -50 -14 -37 0 -50 4 -50
14 0 8 5 18 10 21 6 3 10 48 10 101 0 56 -4 94 -10 94 -5 0 -10 9 -10 20 0 18
7 20 58 20 31 0 74 -5 94 -10z m413 -4 c29 -13 35 -20 35 -45 0 -38 -30 -43
-45 -8 -11 25 -53 34 -84 17 -29 -15 -45 -82 -31 -126 13 -39 39 -57 78 -52
35 4 44 43 13 53 -40 12 -24 35 24 35 l45 0 0 -49 c0 -60 -14 -73 -84 -79 -45
-4 -56 -1 -84 23 -57 48 -67 141 -20 200 36 46 91 57 153 31z m255 -4 c29 -14
36 -23 38 -53 2 -23 -2 -40 -12 -48 -14 -12 -14 -16 4 -38 11 -14 20 -36 20
-49 0 -12 5 -26 10 -29 20 -12 10 -35 -14 -35 -29 0 -37 11 -51 65 -9 37 -13
40 -47 43 -37 3 -38 2 -38 -31 0 -22 6 -37 15 -41 8 -3 15 -12 15 -21 0 -12
-12 -15 -55 -15 -43 0 -55 3 -55 15 0 9 7 18 15 21 23 9 22 182 -2 199 -28 21
-5 35 60 35 39 0 75 -7 97 -18z m318 -19 c3 -28 0 -33 -18 -33 -11 0 -23 7
-26 15 -4 10 -20 15 -45 15 -38 0 -39 -1 -39 -35 0 -35 0 -35 45 -35 38 0 45
-3 45 -20 0 -17 -7 -20 -45 -20 l-45 0 0 -40 0 -40 40 0 c27 0 43 5 46 15 4 8
15 15 26 15 16 0 19 -6 16 -32 l-3 -33 -102 -3 c-88 -2 -103 0 -103 13 0 9 7
18 15 21 12 5 15 25 15 95 0 70 -3 91 -15 95 -8 4 -15 15 -15 25 0 18 7 20
103 17 l102 -3 3 -32z m252 2 c0 -28 -4 -35 -20 -35 -11 0 -20 7 -20 15 0 11
-11 15 -40 15 -39 0 -40 -1 -40 -34 0 -34 1 -35 43 -38 29 -2 42 -8 42 -18 0
-10 -13 -16 -42 -18 -43 -3 -43 -3 -43 -43 0 -39 0 -39 39 -39 25 0 41 5 45
15 11 30 36 17 36 -20 l0 -35 -100 0 c-80 0 -100 3 -100 14 0 8 5 18 10 21 6
3 10 48 10 101 0 56 -4 94 -10 94 -5 0 -10 9 -10 20 0 19 7 20 100 20 l100 0
0 -35z m185 -55 l50 -85 3 64 c2 50 0 66 -14 76 -27 19 -7 35 47 35 41 0 49
-3 49 -19 0 -10 -7 -21 -15 -25 -12 -4 -15 -27 -15 -116 0 -108 0 -110 -23
-110 -18 0 -33 17 -72 80 -26 45 -52 83 -57 86 -4 3 -8 -24 -8 -59 0 -48 4
-66 15 -71 8 -3 15 -12 15 -21 0 -11 -12 -15 -49 -15 -52 0 -76 16 -47 32 24
13 24 185 -1 203 -25 18 -6 37 35 33 34 -3 40 -9 87 -88z m-1964 -289 c24 -30
24 -63 0 -85 -19 -17 -19 -18 0 -37 10 -10 19 -32 19 -49 0 -16 5 -30 10 -30
6 0 10 -7 10 -15 0 -18 -41 -20 -58 -3 -7 7 -12 22 -12 34 0 43 -10 54 -51 54
-37 0 -39 -2 -39 -30 0 -18 6 -33 15 -36 8 -4 15 -12 15 -20 0 -10 -15 -14
-55 -14 -52 0 -73 14 -40 26 22 9 22 199 -1 208 -8 3 -12 11 -8 17 4 7 36 10
91 7 75 -3 87 -6 104 -27z m289 -6 c0 -28 -4 -35 -20 -35 -11 0 -20 7 -20 15
0 11 -12 15 -45 15 -45 0 -45 0 -45 -35 0 -35 0 -35 45 -35 38 0 45 -3 45 -20
0 -17 -7 -20 -45 -20 -45 0 -45 0 -45 -35 0 -35 0 -35 44 -35 30 0 46 5 50 15
11 30 36 17 36 -20 l0 -35 -105 0 c-65 0 -105 4 -105 10 0 6 7 13 15 16 12 5
15 26 15 100 0 75 -3 96 -15 100 -8 4 -15 12 -15 20 0 11 22 14 105 14 l105 0
0 -35z m160 20 c0 -9 -7 -18 -15 -21 -12 -5 -15 -26 -15 -99 0 -73 3 -94 15
-99 33 -12 12 -26 -40 -26 -42 0 -55 3 -55 15 0 8 7 15 15 15 12 0 15 17 15
94 0 74 -3 95 -15 100 -8 3 -15 12 -15 21 0 12 12 15 55 15 43 0 55 -3 55 -15z
m223 4 c27 -14 37 -28 37 -51 0 -25 -37 -23 -50 2 -11 20 -63 28 -86 12 -41
-27 -46 -121 -9 -157 27 -28 66 -32 85 -10 15 18 6 45 -15 45 -8 0 -15 9 -15
21 0 18 5 20 43 17 l42 -3 3 -47 c3 -40 0 -49 -21 -63 -61 -40 -146 -24 -180
34 -34 58 -16 160 35 195 26 19 100 21 131 5z m193 0 c4 -7 -1 -16 -10 -21
-10 -6 -16 -22 -16 -43 l0 -35 55 0 55 0 0 35 c0 22 -6 38 -15 41 -8 4 -15 12
-15 20 0 10 15 14 55 14 40 0 55 -4 55 -14 0 -8 -7 -16 -15 -20 -12 -4 -15
-25 -15 -100 0 -74 3 -95 15 -100 33 -12 12 -26 -40 -26 -42 0 -55 3 -55 15 0
8 7 15 16 15 12 0 14 9 12 38 l-3 37 -52 3 -53 3 0 -39 c0 -26 5 -42 15 -46
33 -12 12 -26 -40 -26 -40 0 -55 4 -55 14 0 8 7 16 15 20 12 4 15 25 15 96 0
71 -3 92 -15 96 -8 4 -15 12 -15 20 0 17 95 20 106 3z m434 -24 c0 -28 -4 -35
-20 -35 -11 0 -20 7 -20 15 0 9 -9 15 -25 15 -25 0 -25 0 -25 -94 0 -74 3 -95
15 -100 33 -12 12 -26 -40 -26 -42 0 -55 3 -55 15 0 8 7 15 15 15 12 0 15 17
15 95 0 94 0 95 -24 95 -13 0 -26 -7 -30 -15 -11 -30 -36 -17 -36 20 l0 35
115 0 115 0 0 -35z m260 20 c0 -9 -7 -18 -15 -21 -12 -5 -15 -26 -15 -99 0
-73 3 -94 15 -99 33 -12 12 -26 -40 -26 -52 0 -73 14 -40 26 12 5 15 26 15 99
0 73 -3 94 -15 99 -8 3 -15 12 -15 21 0 12 12 15 55 15 43 0 55 -3 55 -15z
m175 -75 l50 -85 3 65 c2 49 0 66 -12 72 -9 5 -16 16 -16 23 0 11 14 15 55 15
43 0 55 -3 55 -15 0 -9 -7 -18 -15 -21 -12 -5 -15 -27 -15 -115 l0 -109 -27 0
c-24 0 -34 11 -71 75 -24 41 -48 77 -53 81 -5 3 -9 -23 -9 -59 0 -48 4 -66 15
-71 33 -12 12 -26 -40 -26 -42 0 -55 3 -55 15 0 8 7 15 15 15 12 0 15 17 15
94 0 74 -3 95 -15 100 -8 3 -15 13 -15 21 0 13 9 15 42 13 41 -3 43 -5 93 -88z
m363 74 c14 -10 22 -25 22 -45 0 -37 -26 -40 -40 -4 -7 20 -16 25 -42 25 -18
0 -38 -4 -44 -8 -41 -27 -46 -121 -9 -157 13 -14 31 -25 40 -25 25 0 55 19 55
35 0 8 9 15 20 15 15 0 20 -7 20 -29 0 -25 -6 -31 -42 -46 -57 -22 -99 -13
-137 31 -26 29 -31 43 -31 85 0 56 19 100 52 123 29 20 107 21 136 0z m-35
-391 c-40 -2 -106 -2 -145 0 -40 1 -8 3 72 3 80 0 112 -2 73 -3z m0 -50 c-40
-2 -106 -2 -145 0 -40 1 -8 3 72 3 80 0 112 -2 73 -3z m-996 -33 c13 0 14 -3
5 -12 -7 -7 -12 -19 -12 -27 0 -10 -9 -16 -25 -16 -17 0 -25 6 -25 18 0 9 -4
17 -10 17 -5 0 -10 5 -10 10 0 6 7 10 15 10 9 0 18 7 22 16 5 15 7 15 15 0 5
-9 16 -16 25 -16z m-407 10 c0 -5 7 -10 15 -10 17 0 20 -16 5 -25 -5 -3 -7
-11 -4 -19 3 -9 -5 -13 -26 -13 -21 0 -29 4 -26 13 3 8 1 16 -4 19 -15 9 -12
25 5 25 8 0 15 5 15 10 0 6 5 10 10 10 6 0 10 -4 10 -10z m213 -10 c16 0 18
-3 9 -12 -7 -7 -12 -19 -12 -27 0 -11 -10 -16 -30 -17 -16 -1 -27 3 -24 8 3 5
0 16 -7 24 -6 8 -10 15 -8 17 35 20 45 23 47 16 2 -5 13 -9 25 -9z"/>
<path d="M900 1140 c0 -37 2 -40 28 -40 32 0 52 16 52 42 0 20 -28 38 -59 38
-18 0 -21 -6 -21 -40z"/>
<path d="M1557 1173 c-4 -3 -7 -21 -7 -40 0 -28 3 -33 24 -33 39 0 56 11 56
36 0 31 -52 58 -73 37z"/>
<path d="M317 823 c-13 -12 -7 -64 8 -69 43 -17 92 29 65 61 -13 15 -61 20
-73 8z"/>
<path d="M4 740 c0 -58 1 -81 3 -52 2 28 2 76 0 105 -2 28 -3 5 -3 -53z"/>
</g>
</svg>
