<?xml version="1.0" standalone="no"?>
<!DOCTYPE svg PUBLIC "-//W3C//DTD SVG 20010904//EN"
 "http://www.w3.org/TR/2001/REC-SVG-20010904/DTD/svg10.dtd">
<svg version="1.0" xmlns="http://www.w3.org/2000/svg"
 width="500.000000pt" height="500.000000pt" viewBox="0 0 500.000000 500.000000"
 preserveAspectRatio="xMidYMid meet">
<metadata>
Created by potrace 1.14, written by Peter Selinger 2001-2017
</metadata>
<g transform="translate(0.000000,500.000000) scale(0.100000,-0.100000)"
fill="#000000" stroke="none">
<path d="M2180 4984 c-96 -13 -128 -19 -158 -28 -9 -3 -28 -7 -42 -10 -33 -5
-268 -71 -350 -98 -36 -11 -96 -37 -135 -57 l-70 -36 -274 -5 -274 -5 -53
-219 -52 -218 -58 -61 c-33 -34 -62 -64 -65 -67 -5 -4 -208 -259 -227 -285
-30 -39 -119 -199 -165 -295 -90 -189 -158 -386 -197 -571 -28 -136 -31 -155
-45 -314 -5 -53 -5 -326 0 -390 6 -87 17 -197 20 -214 1 -9 10 -55 19 -103 24
-126 119 -438 161 -526 63 -133 258 -451 318 -519 37 -41 18 -56 -121 -95
-122 -35 -361 -118 -392 -138 -13 -8 -15 -52 -18 -280 l-3 -270 783 -1 c431 0
790 -2 798 -4 8 -2 62 -19 120 -38 126 -42 280 -84 335 -92 22 -3 60 -9 85
-15 41 -8 625 -6 725 4 22 2 69 6 105 10 191 19 543 142 760 265 233 133 354
225 540 411 148 148 173 175 225 245 17 22 33 42 36 45 3 3 27 37 52 75 26 39
51 75 55 80 14 17 76 127 119 210 91 177 175 416 214 607 30 147 37 261 34
548 -3 376 -7 420 -57 595 -39 140 -101 320 -137 399 -63 138 -205 375 -285
473 -8 10 -43 54 -77 98 -73 92 -240 261 -316 320 -29 22 -54 45 -56 50 -3 8
26 170 48 268 4 16 -13 17 -250 17 l-253 0 -74 34 c-134 63 -425 157 -559 180
-198 35 -613 45 -789 20z m169 -204 c9 0 26 -7 37 -15 17 -13 8 -14 -90 -15
-60 0 -106 3 -103 6 10 10 111 33 125 28 8 -2 21 -4 31 -4z m429 -24 c3 -3
-34 -6 -83 -6 -75 0 -86 2 -75 14 6 8 24 16 38 18 26 4 108 -15 120 -26z
m1340 -613 c97 -96 232 -254 232 -273 0 -5 -17 -12 -37 -16 -55 -11 -392 -9
-403 2 -6 6 2 49 19 109 16 55 39 139 52 188 12 48 25 87 30 87 4 0 52 -44
107 -97z m-3000 -60 c57 -19 82 -32 82 -43 0 -9 -22 -54 -48 -100 -62 -107
-73 -112 -267 -112 -179 1 -225 8 -225 37 0 20 81 122 169 212 l81 82 62 -24
c35 -13 100 -37 146 -52z m1268 -145 c-3 -34 -9 -65 -14 -70 -4 -4 -50 -11
-101 -15 l-94 -6 7 39 c4 21 12 56 17 77 l10 37 91 0 90 0 -6 -62z m760 -10
c6 -37 8 -71 5 -76 -6 -9 -455 -8 -505 2 -44 8 -55 25 -58 89 l-4 57 276 -2
275 -3 11 -67z m1359 -298 c82 -77 250 -546 279 -780 25 -206 25 -206 -114
-217 -171 -12 -488 -5 -534 13 -25 9 -37 63 -50 219 -18 214 -16 196 -61 417
-19 92 -47 204 -62 248 -36 107 -34 108 122 116 66 4 121 8 122 9 2 1 63 1
137 0 128 -1 136 -2 161 -25z m-3518 2 c46 -10 46 -12 4 -167 -16 -60 -31
-123 -34 -140 -3 -16 -12 -66 -21 -110 -22 -113 -44 -267 -51 -355 -6 -76 -8
-92 -20 -168 -12 -72 -26 -75 -392 -76 -263 -1 -248 -10 -248 142 0 59 4 133
8 166 15 108 118 418 183 551 66 135 94 160 179 164 28 2 51 3 52 4 5 6 309
-5 340 -11z m1377 -12 c11 -11 17 -577 8 -692 l-4 -48 -194 0 c-158 0 -194 3
-194 14 0 7 12 69 26 137 29 138 99 476 116 556 l11 53 110 -4 c62 -3 115 -10
121 -16z m782 11 c46 -1 47 -3 59 -91 4 -25 12 -76 18 -115 l12 -70 235 -1
c129 -1 240 1 246 3 7 2 20 25 29 51 32 86 35 82 76 -115 44 -207 67 -380 73
-528 4 -94 -1 -112 -32 -120 -35 -9 -170 -15 -397 -18 l-190 -2 3 25 c1 14 10
63 18 110 11 64 94 552 94 556 0 0 -115 0 -256 0 l-257 -1 -27 -35 c-16 -19
-81 -106 -145 -193 -64 -87 -119 -156 -123 -153 -8 9 2 679 11 693 4 6 323 8
553 4z m1627 -1200 c28 -11 30 -16 28 -96 -2 -89 -14 -172 -42 -305 -86 -396
-219 -677 -322 -681 -108 -5 -471 -3 -479 2 -14 9 -3 108 17 155 19 47 61 238
79 364 17 122 20 150 41 355 14 132 27 185 48 196 11 7 59 14 106 17 47 2 87
5 88 6 10 8 414 -4 436 -13z m-3950 -20 c15 -6 27 -18 27 -29 0 -9 -25 -137
-55 -282 -31 -146 -79 -377 -108 -514 -33 -159 -56 -250 -65 -254 -23 -8 -90
17 -118 45 -22 22 -103 176 -141 268 -41 101 -112 367 -139 520 -12 70 -10
223 3 236 7 7 43 15 80 18 111 10 485 4 516 -8z m3069 1 c20 -20 12 -210 -17
-402 -10 -65 -25 -157 -30 -180 -3 -14 -10 -50 -16 -80 -37 -188 -93 -357
-130 -395 -5 -5 -63 -10 -130 -10 l-120 -1 7 146 6 145 -248 0 -249 -1 -91
-144 -91 -145 -97 0 c-88 -1 -99 1 -108 19 -14 26 -17 305 -4 313 5 4 113 7
239 7 l230 1 9 25 c12 33 119 454 153 603 l27 118 324 -3 c236 -3 327 -7 336
-16z m-1521 -324 c2 -79 -2 -663 -5 -683 -7 -43 -19 -75 -30 -76 -6 -1 -163
-2 -349 -2 -296 -2 -337 0 -337 13 0 9 31 164 69 345 38 182 74 356 81 388
l11 57 280 0 279 0 1 -42z m1898 -952 c30 -3 58 -10 62 -17 10 -17 -34 -78
-128 -174 -70 -73 -117 -117 -238 -225 -72 -63 -202 -158 -272 -196 -37 -20
-104 -59 -149 -85 -93 -55 -132 -72 -152 -64 -11 4 -9 12 9 42 13 21 26 40 29
43 3 3 45 57 92 120 92 124 190 279 253 400 76 147 76 148 147 154 125 12 224
13 347 2z m-1927 -10 c11 -10 16 -40 17 -97 1 -46 4 -86 7 -91 3 -4 -1 -8 -8
-9 -52 -4 -782 -3 -788 1 -7 5 25 178 35 188 3 3 136 7 297 9 160 2 293 4 294
6 1 1 32 4 67 5 47 2 69 -1 79 -12z m1236 -1 c32 -8 28 -38 -17 -127 -37 -74
-168 -278 -178 -278 -5 0 4 86 13 135 2 11 9 58 15 105 6 47 12 94 14 105 2
11 4 32 4 47 1 27 1 27 64 23 34 -3 72 -7 85 -10z m-959 -45 c-41 -67 -48 -69
-44 -14 4 49 15 64 52 64 22 0 22 -1 -8 -50z"/>
</g>
</svg>
