<?xml version="1.0" standalone="no"?>
<!DOCTYPE svg PUBLIC "-//W3C//DTD SVG 20010904//EN"
 "http://www.w3.org/TR/2001/REC-SVG-20010904/DTD/svg10.dtd">
<svg version="1.0" xmlns="http://www.w3.org/2000/svg"
 width="2482.000000pt" height="3509.000000pt" viewBox="0 0 2482.000000 3509.000000"
 preserveAspectRatio="xMidYMid meet">

<g transform="translate(0.000000,3509.000000) scale(0.100000,-0.100000)"
fill="#000000" stroke="none">
<path d="M16363 32638 c-23 -24 -54 -54 -69 -66 l-27 -24 51 -44 c35 -30 55
-58 66 -90 14 -43 14 -48 -3 -82 -12 -24 -17 -50 -13 -75 4 -32 1 -39 -16 -44
-19 -5 -18 -8 14 -50 19 -26 46 -54 59 -64 30 -24 121 -147 134 -182 15 -38 4
-57 -30 -57 -24 0 -52 22 -149 113 -104 100 -127 117 -194 144 -67 27 -78 29
-96 16 -30 -21 -25 -30 28 -57 41 -21 50 -31 66 -77 10 -30 21 -91 23 -136 4
-79 4 -82 -21 -99 -17 -11 -36 -14 -56 -10 -53 10 -79 35 -101 97 -31 85 -43
92 -84 43 -38 -43 -41 -60 -20 -88 24 -32 18 -56 -16 -69 l-31 -12 7 -72 c9
-96 -9 -133 -67 -133 -39 0 -56 32 -64 125 -6 68 -11 85 -35 113 -24 27 -27
36 -18 58 15 41 45 78 74 94 47 25 71 91 79 215 6 106 5 113 -20 163 -14 29
-35 57 -45 63 -18 9 -19 6 -19 -43 0 -41 -7 -64 -30 -100 -32 -52 -69 -81 -91
-73 -8 3 -22 19 -31 35 -23 41 -38 38 -38 -8 0 -40 -20 -67 -67 -91 -13 -6
-25 -24 -29 -39 -3 -15 -13 -54 -21 -87 -9 -33 -20 -94 -24 -135 -11 -98 -34
-150 -65 -150 -18 0 -25 7 -30 28 -3 15 -10 38 -15 51 -5 13 -7 43 -3 67 3 24
1 58 -6 78 -8 25 -8 46 -1 73 12 43 67 137 101 170 30 30 20 58 -18 49 -15 -4
-34 -16 -42 -28 -8 -11 -28 -33 -44 -47 -108 -98 -109 -99 -102 -139 5 -34 2
-42 -24 -67 -21 -20 -27 -32 -20 -40 6 -7 7 -26 4 -42 -5 -26 -2 -32 30 -51
40 -24 51 -52 43 -118 -5 -44 -37 -94 -61 -94 -6 0 -24 -7 -40 -15 -16 -9 -35
-14 -43 -11 -7 3 -15 1 -18 -4 -4 -6 -20 -10 -37 -10 l-31 0 24 -26 c40 -43
55 -47 81 -20 30 31 139 79 169 74 26 -3 89 -87 89 -118 0 -30 -29 -52 -59
-45 -21 4 -29 0 -43 -25 -17 -30 -20 -31 -65 -24 -64 9 -46 -12 21 -25 65 -12
72 -21 57 -71 -6 -22 -9 -45 -6 -50 3 -6 28 -10 55 -10 127 0 96 -129 -40
-165 -29 -8 -58 -11 -64 -7 -6 4 -51 7 -101 8 -49 1 -102 5 -117 9 -24 6 -28
4 -28 -13 0 -22 24 -34 77 -37 35 -2 63 -20 63 -41 0 -7 14 -29 30 -47 53 -61
34 -125 -33 -114 -44 7 -87 -2 -94 -20 -3 -9 2 -29 11 -45 23 -38 14 -76 -19
-84 -48 -12 -70 3 -124 86 -28 44 -59 80 -68 80 -9 0 -13 -6 -9 -15 4 -12 -3
-15 -34 -15 -31 0 -40 -4 -46 -22 -3 -13 -15 -31 -25 -41 -11 -10 -19 -22 -19
-27 0 -22 55 -70 117 -100 82 -39 113 -66 113 -96 0 -42 -24 -49 -88 -24 -117
46 -163 60 -172 55 -23 -14 -9 -65 31 -111 23 -27 38 -53 35 -61 -4 -8 5 -28
19 -45 14 -16 25 -36 25 -43 0 -18 -28 -45 -45 -45 -25 0 -27 -21 -5 -45 12
-13 23 -38 23 -57 2 -31 0 -33 -28 -32 -16 0 -41 2 -55 5 -25 4 -25 3 -25 -61
0 -36 -6 -78 -13 -93 -6 -16 -12 -32 -12 -36 0 -4 -9 -16 -21 -27 -24 -21 -21
-69 6 -110 21 -32 41 -30 60 6 8 16 33 39 55 50 22 11 47 32 56 46 12 18 24
24 43 22 34 -4 39 -38 11 -78 l-21 -30 21 -27 c18 -23 20 -36 15 -70 -5 -34
-2 -49 13 -71 30 -43 32 -59 11 -85 -13 -18 -19 -41 -19 -79 0 -65 -7 -77 -62
-103 -23 -11 -48 -31 -54 -45 -79 -163 -98 -200 -103 -200 -3 0 -19 -11 -34
-25 -20 -19 -27 -35 -27 -61 0 -26 -8 -44 -30 -66 -16 -16 -30 -35 -30 -42 0
-7 17 -34 38 -60 l37 -47 63 6 c65 7 109 -3 145 -33 13 -12 20 -13 29 -4 7 7
25 12 40 12 21 0 29 -6 34 -25 7 -30 24 -23 24 9 0 30 15 42 62 51 20 4 51 18
69 31 18 13 40 24 49 24 27 0 49 -33 56 -83 10 -70 0 -92 -48 -112 -40 -16
-41 -18 -20 -26 42 -16 16 -52 -51 -70 -23 -6 -54 -22 -69 -36 -19 -18 -40
-26 -69 -28 -28 -2 -47 -9 -56 -21 -21 -29 -27 -63 -13 -80 12 -13 16 -12 40
11 29 28 61 32 80 10 16 -20 28 -19 79 6 53 25 88 19 97 -17 5 -18 0 -33 -15
-52 -12 -15 -29 -42 -38 -60 -15 -28 -15 -34 -2 -47 24 -24 199 -49 199 -28 0
4 -10 17 -21 29 -31 33 -19 54 30 54 35 0 43 4 56 30 23 44 85 39 85 -6 0 -35
27 -30 39 9 5 17 9 50 8 72 -2 40 -2 40 33 39 19 0 44 -4 54 -9 17 -7 18 -5
12 19 -14 55 30 70 116 39 43 -15 48 -15 72 0 31 21 53 21 111 1 38 -13 61
-13 141 -4 92 10 98 9 137 -12 25 -14 51 -40 67 -68 22 -40 38 -51 128 -96 56
-28 112 -60 124 -71 13 -11 48 -31 79 -45 31 -14 74 -45 98 -70 23 -26 62 -53
86 -62 24 -10 55 -32 69 -50 14 -19 49 -47 78 -64 29 -16 77 -57 106 -90 38
-45 64 -65 93 -73 72 -22 116 -98 87 -150 -16 -28 -8 -49 19 -49 6 0 15 -17
18 -37 10 -56 14 -65 28 -60 6 2 11 17 10 32 -3 36 12 55 43 55 16 0 28 8 36
25 15 34 49 41 88 19 25 -15 34 -16 50 -6 31 19 60 15 69 -10 7 -20 15 -23 67
-23 84 -1 176 -40 189 -80 6 -17 28 -52 49 -78 37 -46 39 -47 53 -27 29 41 93
16 113 -45 11 -33 14 -35 48 -33 32 3 37 0 40 -20 8 -57 -44 -84 -221 -117
-48 -9 -98 -20 -111 -25 -26 -10 -56 -37 -56 -51 0 -17 125 -9 206 12 43 12
98 24 121 28 23 4 60 19 82 34 64 42 87 44 124 10 18 -16 47 -36 65 -43 20 -8
35 -22 38 -37 4 -13 19 -30 35 -39 32 -16 37 -35 14 -54 -24 -20 -18 -28 30
-51 79 -37 98 -91 45 -130 -31 -24 -31 -39 0 -39 11 0 27 -11 36 -25 25 -39
-5 -114 -74 -187 -52 -55 -63 -88 -30 -88 22 0 68 49 84 91 19 46 48 52 66 13
9 -18 17 -24 32 -20 82 20 102 19 124 -9 12 -15 22 -41 22 -57 0 -20 12 -40
40 -68 22 -22 40 -46 40 -55 0 -27 -37 -53 -97 -66 -56 -12 -147 -51 -156 -66
-2 -5 -8 -29 -11 -55 -6 -40 -5 -48 9 -48 8 0 21 12 27 28 18 41 49 72 74 72
12 0 45 12 72 26 41 21 54 24 71 15 26 -14 28 -52 4 -73 -10 -9 -46 -30 -80
-47 -74 -37 -93 -61 -93 -118 0 -37 3 -43 21 -43 12 0 36 12 55 28 74 60 95
74 109 68 19 -7 19 -58 1 -111 -7 -22 -16 -70 -20 -107 -5 -55 -4 -68 8 -68
18 0 36 51 36 103 0 22 7 77 15 121 8 45 18 115 23 156 l7 75 32 3 c23 2 35
-3 47 -20 27 -38 28 -79 4 -158 -19 -60 -22 -82 -14 -113 8 -30 5 -51 -12
-105 -12 -37 -23 -78 -24 -91 -4 -36 17 -36 32 -1 7 18 24 39 37 47 22 15 26
15 41 -1 13 -13 17 -35 17 -96 l0 -80 29 0 28 0 -7 78 -7 78 66 67 c45 47 72
67 90 67 72 0 75 -39 7 -113 -87 -97 -106 -202 -44 -242 17 -11 37 -30 44 -42
16 -30 37 -29 49 1 27 71 70 25 70 -75 0 -65 1 -69 25 -75 36 -9 41 0 27 52
-10 36 -10 50 -1 61 20 24 51 11 64 -26 9 -28 13 -31 18 -17 4 10 7 24 7 31 0
24 -51 75 -99 100 -56 28 -94 67 -89 92 7 39 45 26 140 -47 99 -76 108 -88
133 -162 9 -26 21 -51 27 -55 6 -3 34 -7 62 -7 49 -1 51 -2 54 -32 2 -21 -5
-39 -25 -62 -70 -79 -81 -97 -72 -115 14 -24 36 -21 71 8 54 46 128 25 128
-37 0 -14 -7 -31 -15 -38 -19 -16 -19 -29 0 -37 9 -3 22 2 29 13 9 11 26 18
49 18 29 0 46 -9 85 -46 32 -30 63 -49 86 -53 47 -9 60 -26 51 -71 l-6 -37 40
7 c28 4 51 1 74 -10 33 -16 35 -16 56 5 11 11 32 21 46 21 33 0 75 -20 75 -37
0 -23 39 -53 69 -53 39 0 84 -51 75 -86 -10 -38 34 -27 87 22 34 33 121 47
194 32 29 -6 65 -8 78 -4 30 7 46 46 44 103 -1 37 3 48 38 83 63 65 108 92
139 84 36 -9 86 -57 86 -83 0 -24 15 -28 24 -6 3 8 18 15 33 15 18 0 35 9 49
27 28 35 49 25 58 -26 7 -47 17 -51 40 -16 12 18 25 25 49 25 19 0 42 9 57 23
14 12 39 27 55 32 17 6 30 17 30 25 0 12 -15 15 -70 16 -105 1 -125 8 -125 45
0 48 39 79 98 79 38 0 51 4 56 17 9 21 -18 43 -51 43 -17 0 -31 12 -51 47 -15
25 -35 53 -46 62 -39 34 -46 43 -46 62 0 12 10 23 25 29 35 13 31 33 -9 56
-21 11 -27 20 -51 74 -9 19 -32 64 -53 99 -33 57 -45 69 -107 103 -38 20 -94
42 -123 48 -73 16 -93 60 -52 113 30 38 25 55 -20 73 -55 22 -66 74 -19 89 39
13 14 55 -32 55 -15 0 -37 9 -50 19 -29 24 -19 48 30 72 27 13 30 17 18 27
-11 9 -22 10 -41 2 -48 -18 -84 -12 -103 16 -16 26 -16 27 6 45 13 11 33 19
45 19 41 0 66 12 66 31 0 32 -43 45 -100 30 -113 -29 -182 42 -80 82 46 18 49
31 17 70 -16 20 -33 29 -61 32 -101 9 -151 65 -126 139 6 19 18 40 26 46 7 7
14 23 14 37 0 18 -9 28 -35 38 -19 8 -39 24 -45 34 -15 29 -12 71 6 78 12 5 9
11 -17 35 -30 28 -31 31 -15 46 9 9 31 22 49 28 28 9 32 16 35 50 2 21 8 43
13 49 16 16 10 25 -18 25 -49 0 -57 12 -49 71 8 56 0 69 -40 69 -28 0 -56 33
-52 61 2 18 19 31 62 52 79 38 101 32 131 -36 23 -53 50 -85 62 -74 3 4 0 20
-6 36 -16 38 5 82 59 119 59 41 65 86 11 98 -29 7 -51 22 -51 34 0 5 12 22 26
39 l26 31 -21 26 c-27 34 -26 42 4 54 l25 10 -20 37 c-11 21 -20 46 -20 57 0
22 -124 231 -193 326 -57 78 -65 102 -44 145 15 32 15 34 -9 56 -14 13 -24 34
-24 50 0 27 -1 27 -60 28 -95 0 -140 22 -140 67 0 29 27 44 81 44 51 0 173 35
194 56 8 8 15 23 15 33 0 10 11 27 25 39 25 21 25 23 10 53 -17 32 -8 59 21
59 8 0 16 11 19 25 3 14 8 37 12 53 4 15 8 52 10 82 1 30 3 71 5 90 1 19 -2
43 -6 52 -5 11 0 24 14 38 22 22 22 24 6 57 -14 30 -15 37 -1 63 21 40 19 83
-4 104 -30 27 -74 171 -68 220 6 45 -24 149 -68 236 -17 33 -25 66 -25 100 0
27 -4 50 -10 50 -5 0 -10 -9 -10 -20 0 -37 -39 -98 -87 -137 -116 -94 -123
-103 -138 -178 -8 -38 -15 -96 -15 -129 0 -40 -6 -69 -19 -90 -10 -17 -24 -48
-31 -68 -22 -72 -108 -106 -132 -53 -9 20 -7 34 16 83 15 35 26 76 25 98 l-1
39 -10 -35 c-5 -19 -16 -49 -23 -66 -24 -55 -170 -149 -177 -114 0 3 3 40 7
84 8 90 4 96 -62 96 -42 0 -73 19 -73 45 0 31 57 125 90 147 29 19 36 32 43
73 9 54 -3 95 -27 95 -8 0 -30 -18 -47 -40 -18 -22 -54 -54 -81 -71 -33 -21
-56 -47 -75 -82 -22 -41 -34 -53 -56 -55 -36 -4 -53 10 -61 50 -9 44 -24 58
-62 58 -37 0 -66 23 -57 46 8 21 45 34 96 34 78 0 112 16 168 81 57 67 146
119 201 119 18 0 44 9 58 20 32 25 59 25 138 0 35 -11 86 -20 113 -20 41 0 51
4 65 25 23 35 10 61 -52 100 -30 19 -57 42 -60 50 -4 9 -34 31 -67 51 -51 30
-66 34 -91 27 -17 -5 -59 -5 -98 1 -64 8 -69 7 -115 -20 -69 -42 -78 -44 -108
-28 -45 23 -73 18 -95 -18 -11 -18 -20 -39 -20 -46 0 -28 -32 -80 -55 -90 -35
-16 -59 10 -50 52 9 41 10 94 2 102 -3 4 -13 4 -22 1 -11 -5 -15 -22 -15 -76
0 -88 -24 -123 -84 -123 -60 0 -70 17 -58 99 5 37 6 72 1 77 -14 16 -31 -46
-28 -109 3 -88 1 -95 -25 -105 -35 -13 -94 6 -129 41 -28 29 -29 31 -12 49 10
11 14 21 9 21 -5 1 -25 3 -44 5 -39 3 -70 33 -70 69 0 33 23 47 62 40 43 -8
53 4 61 72 8 72 -6 82 -77 58 -51 -18 -55 -18 -81 -1 -29 19 -48 60 -40 86 8
25 49 40 112 40 53 0 55 1 48 23 -15 45 -11 81 10 92 33 17 105 89 105 104 0
10 -11 12 -48 7 -43 -5 -51 -3 -72 19 -13 14 -31 25 -39 25 -9 0 -37 16 -63
35 l-48 35 0 73 c0 78 -4 88 -37 106 -34 17 -43 13 -43 -19 0 -39 -23 -50
-105 -50 -75 0 -87 12 -66 64 7 17 15 42 18 56 4 23 2 22 -29 -12 -76 -83
-148 -78 -148 11 0 16 3 37 6 46 8 19 55 45 84 45 12 0 35 16 52 35 23 25 42
36 74 41 47 7 53 14 29 34 -10 8 -34 10 -80 5 -54 -6 -69 -5 -84 10 -11 9 -31
15 -48 13 -27 -3 -28 -6 -34 -64 -9 -96 -64 -167 -105 -133 -11 9 -13 25 -8
73 4 34 12 72 19 86 14 29 10 50 -10 50 -13 0 -35 -56 -35 -90 0 -22 -38 -80
-52 -80 -7 0 -33 14 -57 30 -51 34 -67 36 -115 13 -33 -15 -36 -15 -61 1 -57
38 -67 128 -16 147 37 15 42 29 20 57 -29 37 -24 73 15 111 45 44 63 85 46
106 -19 23 -54 15 -58 -12 -2 -13 -17 -33 -33 -45 -16 -13 -46 -36 -66 -53
-52 -43 -107 -39 -148 9 -43 51 -59 45 -28 -9 27 -49 26 -91 -3 -102 -30 -11
-99 33 -205 133 -93 89 -114 103 -159 114 -69 16 -90 38 -90 93 0 54 -12 74
-30 52 -20 -24 -38 -18 -68 24 -15 22 -40 45 -57 51 -16 7 -41 16 -53 21 -17
7 -36 37 -65 99 -29 62 -47 90 -57 88 -19 -4 -16 -48 7 -101 18 -42 11 -69
-21 -75 -28 -6 -126 47 -136 73 -7 17 -2 44 16 97 39 113 39 109 0 147 l-36
35 0 -56 c0 -45 -5 -60 -25 -82 -17 -18 -25 -39 -25 -62 0 -74 -46 -116 -99
-91 -48 23 -68 109 -36 154 8 11 17 40 21 64 3 24 13 54 20 66 19 30 18 46 -5
75 -11 13 -21 44 -23 69 -3 38 -7 46 -33 58 -46 21 -65 41 -95 102 -33 64 -46
77 -86 84 -25 5 -35 -1 -71 -37z"/>
<path d="M18380 31511 c0 -12 20 -27 47 -35 32 -10 20 17 -13 33 -30 13 -34
14 -34 2z"/>
<path d="M18825 31390 c-3 -5 1 -10 9 -10 9 0 16 5 16 10 0 6 -4 10 -9 10 -6
0 -13 -4 -16 -10z"/>
<path d="M15000 31336 c0 -8 4 -17 9 -20 10 -7 23 19 14 28 -11 11 -23 6 -23
-8z"/>
<path d="M18847 31203 c-12 -11 -8 -23 8 -23 8 0 15 7 15 15 0 16 -12 20 -23
8z"/>
<path d="M15096 31191 c-3 -4 6 -13 20 -20 33 -15 44 -14 44 3 0 22 -53 36
-64 17z"/>
<path d="M19007 31173 c-10 -9 -9 -51 2 -57 13 -9 44 31 38 49 -7 15 -28 20
-40 8z"/>
<path d="M19040 30995 c0 -8 5 -15 10 -15 6 0 10 7 10 15 0 8 -4 15 -10 15 -5
0 -10 -7 -10 -15z"/>
<path d="M19205 30899 c-11 -17 6 -29 40 -29 29 0 55 15 44 24 -11 9 -80 13
-84 5z"/>
<path d="M14931 30874 c0 -11 3 -14 6 -6 3 7 2 16 -1 19 -3 4 -6 -2 -5 -13z"/>
<path d="M19250 30740 c0 -35 13 -39 34 -8 18 25 13 38 -15 38 -14 0 -19 -7
-19 -30z"/>
<path d="M19445 30615 c-50 -18 -75 -48 -75 -89 l1 -31 17 24 c31 44 74 81 93
81 10 0 19 7 19 15 0 18 -4 18 -55 0z"/>
<path d="M14140 30555 c0 -8 -13 -29 -28 -47 -16 -18 -39 -50 -51 -71 -42 -68
-101 -59 -123 20 -16 56 -32 64 -47 23 -9 -26 -15 -31 -38 -28 -17 2 -32 12
-39 26 -23 46 -33 48 -48 10 -11 -25 -25 -39 -47 -47 -29 -10 -31 -14 -26 -46
4 -25 1 -41 -13 -57 -18 -22 -19 -22 -54 -5 -79 37 -88 8 -21 -64 47 -51 64
-92 48 -118 -17 -26 -52 -14 -117 39 -56 46 -109 70 -124 56 -3 -4 0 -12 6
-18 20 -20 14 -56 -13 -74 -22 -14 -24 -22 -19 -50 5 -30 3 -35 -22 -46 -16
-7 -30 -13 -32 -14 -9 -6 31 -63 47 -69 53 -17 94 -114 46 -107 -79 10 -136
22 -175 36 -25 9 -50 16 -56 16 -17 0 -14 -82 3 -101 12 -15 11 -19 -11 -36
-18 -15 -39 -19 -89 -18 -64 1 -66 0 -81 -32 -8 -18 -30 -39 -47 -48 l-32 -17
24 -12 c13 -6 25 -22 27 -34 5 -30 25 -28 65 8 34 29 59 36 91 24 31 -12 8
-87 -35 -118 -16 -11 -22 -27 -24 -60 -2 -51 10 -59 40 -26 10 11 36 25 58 32
25 7 50 26 70 50 24 30 37 38 57 36 22 -3 25 -8 28 -46 3 -37 6 -42 22 -37 24
8 60 -11 60 -31 0 -8 -18 -34 -40 -58 -42 -45 -53 -93 -27 -114 17 -14 28 -5
52 43 13 26 28 41 42 43 13 2 32 17 43 33 25 35 42 37 62 7 13 -20 17 -21 32
-9 34 28 47 67 37 111 -13 59 15 164 46 168 18 3 24 -4 33 -40 19 -73 16 -70
62 -63 23 4 50 12 59 18 13 8 22 7 33 -2 28 -23 19 -59 -28 -109 -50 -55 -61
-73 -70 -124 -6 -32 -18 -46 -81 -92 -40 -30 -76 -64 -80 -76 -5 -16 3 -37 30
-76 19 -30 43 -58 51 -61 8 -3 21 -21 29 -39 8 -19 21 -34 30 -34 8 0 21 -12
27 -26 10 -21 9 -27 -3 -35 -59 -39 -121 -17 -217 76 -64 62 -85 76 -125 85
-26 5 -55 10 -62 10 -23 0 -17 -26 14 -62 15 -18 41 -53 56 -78 15 -25 59 -77
96 -117 38 -39 76 -87 84 -105 19 -47 33 -56 85 -60 43 -3 45 -4 48 -38 2 -19
8 -39 13 -44 17 -18 9 -55 -17 -75 -32 -25 -57 -27 -75 -5 -74 90 -249 27
-249 -89 0 -58 19 -91 54 -95 29 -4 66 21 66 44 0 20 50 74 69 74 10 0 26 -9
36 -20 16 -18 17 -25 7 -54 -10 -26 -10 -40 -1 -59 10 -23 8 -30 -15 -57 -14
-17 -26 -38 -26 -47 0 -8 21 -35 48 -59 39 -37 54 -44 88 -44 54 0 82 -28 68
-68 -6 -19 -26 -35 -68 -55 -80 -38 -126 -31 -178 27 -118 132 -107 123 -123
102 -24 -32 -18 -70 21 -127 69 -103 68 -147 -8 -185 -49 -25 -68 -52 -68 -99
0 -20 5 -23 27 -22 21 2 30 -5 41 -25 14 -29 26 -35 37 -17 4 5 17 9 28 8 12
-2 34 5 48 14 30 20 52 15 74 -19 21 -33 40 -30 65 11 23 37 48 55 75 55 8 0
33 12 54 26 33 22 50 25 108 24 37 0 84 2 105 5 29 6 43 2 74 -19 21 -14 45
-26 52 -26 7 0 21 20 32 44 12 29 33 54 59 71 50 33 56 50 33 89 -16 27 -26
32 -80 41 -45 7 -66 16 -77 33 -22 30 -50 28 -128 -9 -55 -25 -69 -28 -88 -19
-19 11 -21 18 -17 71 6 79 20 92 104 96 57 2 73 7 120 38 30 20 54 42 54 49 0
6 -12 28 -26 47 -40 53 -47 78 -29 105 8 13 21 24 28 24 7 0 26 13 41 29 18
19 34 27 47 24 13 -4 19 0 19 11 0 9 -8 16 -19 16 -50 0 -51 67 -1 97 36 21
34 36 -6 43 -42 7 -45 44 -5 81 36 33 38 42 11 69 -23 23 -103 27 -157 8 -39
-14 -54 -4 -59 38 -1 15 -10 32 -19 37 -9 5 -20 20 -26 34 -14 38 41 129 92
152 21 10 48 30 59 44 12 15 30 27 41 27 23 0 25 13 3 30 -9 8 -14 25 -12 44
3 29 6 31 48 36 54 7 70 15 70 39 0 9 5 22 11 28 16 16 2 33 -25 33 -13 0 -31
9 -40 19 -21 23 -11 48 31 79 26 19 27 20 13 62 -13 39 -13 43 5 56 10 8 25
14 32 14 22 0 33 36 33 107 0 37 7 96 15 131 8 35 12 80 9 101 -4 26 -1 48 11
70 9 18 15 40 13 49 -2 10 -21 -15 -47 -62 -24 -44 -64 -101 -89 -128 -38 -41
-51 -48 -76 -46 -41 4 -45 34 -12 85 13 21 28 55 32 77 6 35 5 38 -14 32 -20
-7 -42 16 -42 43 0 19 61 81 96 97 18 9 51 36 74 60 37 41 40 48 40 102 0 33
9 85 20 117 23 67 24 84 8 120 -12 26 -14 26 -79 20 -64 -7 -67 -6 -101 24
-39 34 -58 39 -58 16z"/>
<path d="M19237 30513 c-11 -10 -8 -73 3 -73 11 0 14 7 24 53 6 26 -10 38 -27
20z"/>
<path d="M19540 30504 c-42 -18 -70 -42 -70 -61 0 -26 30 -25 61 1 17 14 38
26 48 26 23 0 63 29 56 41 -9 13 -55 10 -95 -7z"/>
<path d="M20055 30420 c-3 -6 1 -13 10 -16 19 -8 30 0 20 15 -8 14 -22 14 -30
1z"/>
<path d="M20221 30326 c-11 -13 -9 -16 12 -21 35 -9 62 -2 62 15 0 21 -58 25
-74 6z"/>
<path d="M20020 29862 c-25 -21 -50 -136 -33 -153 8 -8 14 -2 21 25 6 19 24
53 41 73 17 21 31 43 31 49 0 20 -39 23 -60 6z"/>
<path d="M12780 29480 c0 -13 5 -20 13 -17 6 2 12 10 12 17 0 7 -6 15 -12 18
-8 2 -13 -5 -13 -18z"/>
<path d="M12818 29347 c-15 -23 -33 -50 -40 -59 -10 -13 -9 -22 2 -45 8 -15
16 -31 18 -36 2 -4 -15 -25 -37 -48 -23 -22 -41 -48 -41 -59 0 -35 12 -50 40
-50 31 0 60 -23 60 -47 0 -8 -20 -34 -45 -59 -67 -65 -61 -124 13 -124 l34 0
-7 -50 c-9 -66 -2 -74 43 -51 67 34 95 35 137 7 21 -15 43 -26 50 -26 18 0 45
-34 45 -58 0 -30 -37 -52 -90 -52 -36 0 -52 -5 -68 -23 -31 -33 -27 -59 13
-107 19 -23 35 -47 35 -54 0 -6 9 -17 21 -24 11 -7 29 -33 39 -57 15 -35 24
-45 43 -45 35 0 62 33 48 59 -15 27 -14 58 3 64 7 3 28 -3 45 -14 37 -22 44
-20 61 20 10 26 9 40 -10 96 -20 62 -21 68 -6 83 13 14 21 14 49 4 50 -18 64
-15 72 15 3 15 22 49 41 75 45 61 40 77 -37 123 -61 38 -81 65 -94 125 -11 52
-30 77 -72 90 -44 14 -79 43 -99 82 -8 15 -32 37 -54 48 -47 24 -79 65 -115
145 -24 56 -51 95 -64 95 -3 0 -18 -20 -33 -43z"/>
<path d="M13176 29344 c-20 -20 -12 -34 19 -34 24 0 51 31 38 44 -12 11 -41 6
-57 -10z"/>
<path d="M4333 28889 c-51 -15 -63 -40 -56 -120 8 -90 -36 -300 -78 -376 -50
-91 -39 -163 47 -305 20 -33 32 -63 28 -67 -5 -5 -80 -56 -167 -115 -175 -117
-196 -124 -258 -81 -50 33 -129 140 -129 174 0 36 63 122 106 144 40 20 54 45
33 58 -8 5 -50 23 -93 40 -44 17 -103 46 -132 64 -29 19 -75 40 -102 48 -70
21 -101 40 -151 92 -41 41 -71 57 -71 38 0 -5 -1 -48 -3 -98 -3 -116 -19 -146
-112 -202 -80 -48 -90 -60 -99 -111 -9 -57 6 -94 75 -185 34 -45 79 -119 100
-164 63 -136 111 -173 266 -208 98 -23 103 -25 103 -43 0 -34 -44 -105 -109
-174 -37 -40 -82 -94 -100 -121 -35 -52 -70 -80 -92 -73 -8 2 -27 7 -42 10
-15 4 -54 31 -87 61 -69 63 -93 72 -171 59 -71 -12 -150 4 -184 36 -16 15 -26
39 -31 69 -12 88 -61 127 -143 116 -31 -4 -71 0 -123 14 -54 14 -117 21 -216
22 -187 4 -184 6 -236 -171 -27 -90 -66 -151 -116 -180 -25 -14 -54 -40 -65
-56 -11 -17 -37 -42 -57 -57 -42 -30 -47 -53 -26 -130 9 -36 9 -51 -4 -83 -20
-50 -8 -82 52 -139 23 -22 55 -65 71 -95 16 -30 41 -70 54 -89 32 -43 31 -71
0 -126 -22 -37 -25 -51 -19 -93 6 -45 4 -51 -14 -56 -12 -4 -43 0 -71 8 l-50
15 -45 -35 c-24 -20 -47 -41 -49 -48 -3 -7 9 -34 26 -59 25 -36 46 -51 95 -73
85 -36 99 -63 83 -153 -7 -36 -11 -91 -10 -121 1 -30 -2 -67 -6 -82 -6 -22 -1
-35 25 -68 25 -32 43 -43 88 -55 31 -9 77 -25 102 -36 25 -11 71 -24 102 -28
51 -7 98 -31 98 -50 0 -17 -64 -41 -145 -56 -112 -21 -136 -32 -205 -89 -30
-25 -75 -54 -99 -63 -38 -15 -49 -15 -90 -3 -26 8 -97 15 -166 15 -105 2 -133
6 -220 33 -145 46 -205 54 -325 42 -137 -15 -199 -2 -243 47 -75 84 -98 102
-162 123 -45 15 -77 20 -98 15 -56 -11 -86 -7 -124 20 -21 14 -64 31 -96 37
-46 10 -70 23 -120 65 -92 79 -182 117 -217 93 -23 -16 30 -56 230 -172 362
-210 578 -310 872 -407 390 -127 688 -177 1148 -191 157 -5 317 -12 355 -15
53 -5 75 -3 89 8 19 14 19 15 -2 45 -48 66 -18 100 95 113 174 19 331 26 378
19 96 -17 221 -11 357 16 168 33 270 31 299 -5 43 -53 10 -119 -72 -142 -37
-10 -55 -9 -109 5 -96 24 -124 21 -167 -17 -80 -69 -130 -97 -172 -97 -51 0
-59 -14 -24 -44 23 -20 25 -26 15 -39 -7 -9 -31 -18 -53 -22 -92 -16 -41 -49
106 -70 163 -23 229 -46 304 -105 84 -65 114 -67 203 -7 34 23 72 56 83 74 30
48 47 49 107 7 93 -65 248 -229 287 -302 7 -13 23 -83 37 -155 45 -253 71
-301 214 -395 154 -102 162 -110 225 -233 31 -61 94 -166 139 -233 120 -177
166 -319 201 -621 9 -77 20 -158 25 -180 14 -60 12 -153 -5 -215 -9 -30 -20
-119 -26 -197 -13 -178 -1 -311 42 -488 30 -124 31 -134 20 -207 -14 -91 -7
-141 45 -319 54 -186 75 -224 167 -295 34 -26 83 -67 109 -92 l46 -44 59 33
c81 46 144 108 201 198 119 184 119 200 11 387 -41 71 -89 146 -107 166 -30
33 -33 41 -27 80 7 52 34 544 42 755 6 151 6 152 -21 197 -26 45 -27 47 -11
98 8 28 15 66 15 84 0 17 7 48 16 69 8 21 13 48 10 60 -10 39 -44 45 -266 45
-209 0 -210 0 -215 23 -7 29 -105 491 -105 494 0 2 15 20 34 41 l34 37 -174
109 c-96 59 -174 110 -174 112 0 2 412 556 917 1231 504 675 979 1312 1055
1415 l140 188 -21 56 c-18 51 -19 65 -9 135 20 144 -21 212 -150 250 -70 21
-83 29 -142 88 -39 40 -82 98 -109 146 -174 318 -229 399 -307 454 -79 55
-115 93 -140 146 -29 61 -30 84 -4 128 24 40 20 54 -26 115 -19 24 -43 69 -54
99 -31 83 -47 111 -117 201 l-65 82 -63 0 c-62 0 -65 1 -117 49 -36 33 -59 64
-68 91 -20 60 -47 83 -138 118 -87 33 -136 43 -317 64 -154 17 -183 16 -245
-12 -46 -20 -71 -24 -160 -24 -93 -1 -111 2 -161 25 -37 18 -70 44 -100 79
-78 93 -87 100 -138 99 -25 0 -60 -5 -78 -10z"/>
<path d="M12466 28874 c-4 -10 -1 -14 6 -12 15 5 23 28 10 28 -5 0 -13 -7 -16
-16z"/>
<path d="M11993 28613 c-24 -9 -13 -36 31 -77 47 -44 70 -100 64 -159 -2 -25
-9 -34 -33 -41 -41 -14 -43 -16 -21 -32 11 -8 44 -14 75 -15 84 -1 148 -39
182 -108 25 -52 54 -80 67 -67 3 4 1 33 -6 64 -7 32 -12 91 -12 131 0 86 -16
119 -72 151 -23 13 -46 37 -58 61 -24 47 -35 49 -55 10 -22 -44 -51 -31 -80
35 -24 54 -41 64 -82 47z"/>
<path d="M11440 28422 c-32 -26 -19 -40 37 -38 44 1 48 3 48 26 0 21 -5 26
-31 28 -19 2 -39 -4 -54 -16z"/>
<path d="M12557 28413 c-4 -3 -7 -34 -7 -68 0 -62 0 -63 40 -89 53 -35 70 -69
46 -95 -21 -23 -15 -27 51 -29 46 -2 55 1 69 23 30 46 12 87 -80 181 -76 78
-102 95 -119 77z"/>
<path d="M11186 28225 c-4 -12 -1 -16 14 -13 24 3 28 22 7 26 -8 2 -17 -4 -21
-13z"/>
<path d="M11365 28211 c-77 -34 -116 -109 -82 -155 17 -23 101 -30 122 -10 19
20 19 54 0 54 -12 0 -35 28 -35 44 0 13 34 36 53 36 32 0 49 14 41 33 -8 22
-48 21 -99 -2z"/>
<path d="M10870 28090 c-20 -12 -54 -20 -80 -20 -80 0 -117 -17 -195 -90 -60
-55 -87 -72 -141 -90 -80 -27 -124 -63 -127 -105 -2 -29 -1 -30 46 -30 55 0
82 -23 72 -62 -10 -40 14 -25 36 22 15 33 29 47 48 51 73 15 87 21 96 44 40
95 48 105 89 105 31 0 43 -6 59 -28 l21 -27 -21 -50 c-12 -28 -19 -50 -16 -50
13 0 109 95 120 118 7 15 12 47 13 72 0 32 8 57 26 83 43 64 20 93 -46 57z"/>
<path d="M12205 28060 c-7 -12 2 -30 16 -30 5 0 9 9 9 20 0 21 -15 27 -25 10z"/>
<path d="M12763 27974 c-9 -25 24 -44 74 -44 47 0 65 19 43 45 -18 22 -109 20
-117 -1z"/>
<path d="M11926 27880 c17 -32 48 -43 37 -12 -9 26 -24 42 -38 42 -11 0 -10
-6 1 -30z"/>
<path d="M12700 27663 c0 -26 52 -91 90 -115 17 -10 30 -21 30 -25 0 -5 11
-21 25 -36 27 -28 72 -36 92 -16 20 20 57 1 93 -48 19 -26 40 -56 45 -68 6
-11 24 -38 40 -60 29 -37 30 -42 27 -132 -2 -85 0 -98 20 -126 13 -17 28 -49
33 -71 12 -45 15 -47 112 -76 78 -24 103 -22 103 8 0 29 32 52 72 52 29 0 42
-7 68 -37 31 -35 36 -37 99 -39 41 -1 76 3 93 12 15 8 43 14 63 14 35 0 162
60 177 83 4 7 4 31 1 54 -4 33 -2 43 8 44 29 3 45 -4 83 -32 22 -16 46 -29 54
-29 33 0 150 41 156 55 3 8 -6 28 -21 45 l-25 31 17 61 c9 35 14 74 11 93 -17
90 -150 134 -321 106 -44 -8 -56 -16 -109 -72 -32 -35 -72 -88 -88 -117 -35
-61 -63 -73 -114 -48 -45 21 -117 21 -176 -1 -61 -22 -91 -8 -114 54 -23 59
-74 103 -120 103 -28 0 -44 8 -71 35 -48 48 -42 69 20 73 38 2 48 7 45 19 -2
9 -21 21 -43 27 -31 9 -44 20 -58 49 -19 40 -29 44 -67 22 -67 -38 -136 -5
-142 70 l-3 39 -55 2 c-30 1 -76 5 -102 9 -44 7 -48 6 -48 -12z"/>
<path d="M17000 27660 c0 -13 5 -20 13 -17 6 2 12 10 12 17 0 7 -6 15 -12 18
-8 2 -13 -5 -13 -18z"/>
<path d="M10970 27635 c0 -13 5 -36 12 -50 9 -21 9 -29 -4 -42 -15 -14 -21
-13 -69 10 -60 28 -104 25 -47 -4 19 -10 40 -25 48 -34 23 -27 -17 -57 -84
-63 -55 -4 -80 -22 -32 -22 41 0 56 -11 56 -40 0 -38 -26 -57 -91 -64 -60 -8
-96 -26 -85 -44 3 -6 39 -27 80 -47 82 -42 96 -40 144 17 19 22 32 28 55 26
31 -3 38 -12 54 -63 8 -29 11 -30 78 -36 84 -7 120 -23 135 -58 14 -35 -1 -78
-32 -91 -13 -5 -72 -14 -131 -18 -113 -9 -144 -22 -131 -55 5 -15 88 -47 121
-47 8 0 64 21 125 46 122 50 242 84 296 84 20 0 65 -7 100 -16 62 -16 65 -15
91 3 14 11 41 41 59 67 30 45 32 54 32 130 0 51 -5 89 -13 100 -11 16 -14 13
-30 -22 -10 -22 -24 -42 -31 -45 -20 -8 -56 21 -56 43 0 11 -11 27 -25 36 -54
35 -82 117 -50 144 13 11 12 15 -10 36 -20 18 -25 33 -25 72 0 27 -3 51 -6 55
-12 11 -74 -45 -74 -66 0 -12 14 -36 32 -54 l32 -33 -16 -59 c-15 -57 -15 -60
8 -112 13 -30 23 -66 24 -82 0 -56 -88 -58 -207 -2 -48 22 -55 30 -95 107 -23
46 -51 103 -61 128 -23 56 -38 72 -72 75 -36 4 -50 18 -70 70 -18 49 -35 59
-35 20z"/>
<path d="M11991 27526 c-8 -9 -11 -19 -7 -23 9 -9 29 13 24 27 -2 8 -8 7 -17
-4z"/>
<path d="M12318 27519 c-11 -7 -9 -21 14 -97 13 -45 7 -66 -25 -86 -24 -15
-47 1 -75 52 -29 52 -48 55 -26 5 43 -101 41 -122 -17 -159 -68 -42 -39 -62
36 -24 44 22 67 25 96 10 23 -13 25 -39 4 -66 -18 -23 -19 -64 -3 -98 9 -21 8
-29 -5 -44 -35 -38 -16 -52 67 -52 81 0 103 22 108 108 2 51 9 76 27 101 22
31 23 37 11 65 -21 50 -23 99 -6 156 20 66 20 81 2 106 -12 16 -30 20 -106 24
-51 3 -97 2 -102 -1z"/>
<path d="M10576 27498 c-24 -34 -19 -44 9 -18 14 13 25 27 25 32 0 16 -19 8
-34 -14z"/>
<path d="M17327 27514 c-4 -4 -7 -34 -7 -66 0 -38 -7 -73 -21 -103 -11 -24
-18 -49 -14 -55 16 -26 129 2 142 37 4 9 -12 31 -41 57 -49 46 -53 55 -34 86
10 16 10 22 -3 35 -8 9 -18 12 -22 9z"/>
<path d="M17490 27449 c0 -24 23 -21 28 4 2 10 -3 17 -12 17 -10 0 -16 -9 -16
-21z"/>
<path d="M11992 27383 c2 -10 10 -18 18 -18 8 0 16 8 18 18 2 12 -3 17 -18 17
-15 0 -20 -5 -18 -17z"/>
<path d="M17560 27260 c0 -5 5 -10 10 -10 6 0 10 5 10 10 0 6 -4 10 -10 10 -5
0 -10 -4 -10 -10z"/>
<path d="M9865 27160 c-3 -5 -11 -48 -17 -95 -13 -96 -13 -96 -155 -238 -34
-34 -71 -82 -82 -107 -11 -25 -41 -65 -66 -90 -25 -25 -64 -79 -86 -120 -51
-93 -50 -140 2 -221 32 -51 34 -59 35 -144 0 -50 3 -96 7 -102 13 -20 99 -26
139 -9 22 10 67 16 111 16 87 0 103 12 136 101 25 67 48 90 121 122 36 16 73
44 106 81 68 73 157 116 263 126 60 6 91 16 151 47 72 38 75 41 74 74 -1 19
-16 60 -36 94 -20 33 -41 81 -48 107 -22 85 -85 127 -140 94 -37 -21 -56 -20
-96 4 -24 15 -39 36 -53 76 -12 30 -28 66 -38 80 -23 35 -93 68 -199 93 -103
24 -120 25 -129 11z"/>
<path d="M12808 27133 c-8 -10 -23 -40 -33 -66 -18 -47 -18 -48 3 -75 12 -15
31 -43 42 -64 11 -20 34 -48 52 -62 l33 -25 23 21 c20 20 22 28 16 82 -8 87
-22 123 -61 167 -39 43 -53 47 -75 22z"/>
<path d="M18150 27041 c0 -11 26 -22 34 -14 12 12 5 23 -14 23 -11 0 -20 -4
-20 -9z"/>
<path d="M11904 27026 c-8 -22 3 -49 19 -43 6 2 12 14 12 27 0 27 -22 39 -31
16z"/>
<path d="M17817 26945 c-4 -9 -20 -21 -37 -26 -16 -6 -30 -14 -30 -19 0 -4 16
-20 35 -35 27 -20 34 -32 30 -46 -9 -28 22 -36 57 -16 36 21 121 23 137 3 9
-11 9 -22 -3 -50 -20 -48 -2 -46 32 5 15 22 39 55 53 72 35 43 40 62 24 84
-11 15 -33 19 -127 24 -62 4 -125 10 -139 14 -19 5 -28 3 -32 -10z"/>
<path d="M14602 26710 c-102 -37 -138 -83 -94 -123 134 -124 152 -138 172
-127 11 6 24 19 30 29 5 11 27 25 47 32 63 20 153 69 153 82 0 19 -59 72 -109
97 -61 30 -134 34 -199 10z"/>
<path d="M14230 26588 c-39 -20 -46 -28 -51 -62 -7 -46 -30 -66 -76 -66 -30 0
-33 -3 -33 -29 0 -22 6 -31 30 -41 39 -16 49 -48 21 -70 l-22 -16 21 -27 c37
-47 17 -63 -67 -58 -40 3 -41 -7 -9 -81 15 -34 33 -58 49 -65 37 -17 44 -49
18 -84 -12 -15 -21 -39 -21 -52 0 -38 41 -91 80 -103 53 -17 65 -50 44 -120
-10 -35 -14 -71 -10 -95 8 -50 -14 -73 -81 -88 -111 -23 -148 27 -72 97 37 34
40 41 30 60 -6 12 -24 28 -40 36 -43 23 -89 81 -101 128 -6 24 -31 105 -55
180 -62 187 -61 282 3 382 14 23 27 61 30 88 4 44 3 47 -22 54 -19 4 -43 -3
-88 -26 -82 -42 -116 -75 -124 -119 -4 -20 -21 -63 -39 -96 -24 -43 -34 -78
-38 -125 -3 -36 -13 -82 -21 -102 -21 -50 -20 -83 5 -128 21 -36 21 -40 6 -84
-14 -40 -14 -53 -1 -113 8 -37 14 -80 14 -95 0 -44 32 -68 90 -68 101 0 226
-70 213 -119 -10 -40 -50 -61 -114 -61 -33 0 -59 -4 -59 -10 0 -14 120 -111
157 -126 18 -8 64 -14 103 -14 52 0 82 -6 111 -21 29 -14 74 -23 156 -30 121
-9 204 -2 283 26 23 8 62 15 85 15 26 0 48 6 55 15 7 8 28 15 46 15 40 0 45
16 8 30 -16 7 -24 16 -22 28 3 14 17 18 73 23 52 4 82 12 117 33 26 15 58 27
70 26 58 -5 67 18 18 46 -36 22 -45 43 -26 62 12 12 31 13 122 4 92 -9 112
-14 126 -33 10 -11 18 -27 18 -34 0 -21 33 -43 79 -54 24 -5 60 -22 80 -38 20
-16 59 -42 88 -58 29 -15 62 -38 75 -52 20 -22 21 -26 9 -56 -21 -51 -20 -81
5 -85 16 -2 33 10 60 43 59 73 123 95 158 56 13 -14 14 -24 6 -45 -14 -39 -4
-49 31 -30 39 20 87 5 117 -35 12 -16 42 -37 69 -47 61 -22 68 -28 117 -94 22
-30 68 -85 102 -121 91 -97 108 -136 99 -223 -4 -39 -10 -107 -14 -151 -5 -59
-14 -93 -34 -130 -28 -52 -34 -102 -17 -135 6 -11 35 -31 64 -45 60 -28 101
-75 104 -119 3 -37 -12 -54 -64 -77 -23 -9 -73 -46 -110 -82 -38 -35 -83 -71
-99 -80 -32 -16 -111 -32 -207 -42 -31 -4 -61 -12 -67 -19 -6 -7 -13 -62 -16
-123 -4 -99 -3 -113 15 -135 28 -37 80 -58 142 -58 66 0 87 14 126 83 40 70
52 79 125 86 71 7 88 29 37 48 -24 9 -30 17 -30 42 0 34 30 71 57 71 9 0 50
-11 90 -26 57 -19 85 -23 118 -19 60 10 83 -1 100 -43 11 -26 30 -46 63 -65
26 -15 62 -37 79 -48 l33 -21 45 22 c45 22 47 22 98 5 74 -24 90 -40 82 -86
-9 -51 6 -73 70 -105 50 -24 64 -26 128 -21 40 3 111 16 158 28 l87 23 40 -28
c49 -33 148 -49 313 -50 103 -1 107 0 160 32 42 27 61 33 86 29 41 -7 43 9 8
51 -32 38 -145 93 -260 127 -49 15 -148 45 -220 67 -71 22 -145 44 -163 50
-37 11 -56 40 -48 73 8 33 36 39 86 19 34 -14 46 -15 68 -4 29 13 166 14 249
2 26 -4 70 -5 96 -2 26 3 87 0 135 -6 48 -7 95 -13 105 -13 33 -2 17 40 -37
97 -74 79 -81 95 -60 132 15 24 16 35 6 67 -24 81 -101 143 -179 143 -49 1
-65 14 -94 75 l-24 50 -79 8 c-68 8 -86 6 -131 -11 -74 -28 -96 -21 -179 64
l-73 74 -55 0 c-38 0 -60 5 -68 15 -19 23 -25 112 -9 141 20 39 2 58 -61 64
-35 4 -57 12 -66 25 -19 26 -18 29 19 106 l32 68 50 1 c33 0 67 -8 100 -25 28
-13 60 -25 73 -25 12 0 39 -7 59 -15 46 -20 61 -19 59 3 -2 24 48 28 96 6 29
-13 45 -30 61 -63 20 -40 27 -46 72 -57 28 -7 79 -25 115 -39 134 -53 170 -44
131 34 -12 22 -21 49 -21 60 0 11 -19 36 -45 58 -25 20 -48 46 -51 56 -7 24
22 57 51 57 61 0 61 64 0 129 -53 57 -56 81 -15 135 40 53 40 97 1 137 -35 35
-79 38 -106 9 -10 -11 -26 -20 -36 -20 -10 0 -31 -11 -47 -25 -39 -33 -58 -32
-77 5 -17 32 -45 39 -65 15 -15 -18 -71 -29 -105 -21 -16 4 -32 20 -43 43 -29
61 -59 76 -157 78 -60 1 -88 -2 -96 -11 -21 -25 -74 -27 -124 -5 -26 12 -64
21 -84 21 -20 1 -47 7 -61 15 -15 9 -54 14 -102 15 -42 0 -84 3 -93 6 -10 4
-30 36 -46 71 -25 56 -34 67 -68 80 -22 9 -42 22 -45 30 -12 30 18 67 69 88
67 27 75 33 75 56 0 27 -30 25 -91 -7 -68 -34 -128 -31 -147 8 -17 36 3 86 46
117 17 12 34 31 37 42 13 41 -56 80 -83 47 -5 -7 -15 -33 -22 -56 -11 -43 -12
-44 -48 -39 -135 19 -157 35 -147 110 3 26 8 53 11 60 3 8 -4 24 -14 37 -17
21 -23 23 -45 13 -15 -7 -37 -33 -51 -61 -39 -76 -47 -80 -106 -42 -41 26 -50
37 -50 61 0 34 -8 36 -41 10 -21 -16 -34 -18 -92 -12 -39 4 -72 13 -77 20 -13
21 1 51 30 66 32 17 44 40 27 52 -17 13 -153 34 -171 27 -9 -3 -21 -27 -28
-52 -13 -46 -15 -47 -57 -50 -47 -4 -101 13 -101 32 0 6 -5 18 -10 26 -8 13
-12 12 -25 -7 -18 -26 -47 -30 -65 -8 -12 14 -10 56 5 102 6 19 3 23 -21 28
-16 4 -37 9 -46 11 -9 3 -33 28 -53 55 -59 82 -118 95 -252 54 -55 -16 -83
-49 -83 -94 0 -39 -32 -102 -59 -116 -17 -8 -43 -12 -68 -8 -50 7 -57 -3 -54
-72 1 -55 -25 -105 -55 -105 -8 0 -14 -4 -14 -10 0 -23 -18 -7 -35 29 -15 33
-16 55 -10 140 8 116 0 147 -45 173 -20 11 -30 25 -30 40 0 15 -17 41 -46 68
-25 25 -57 66 -70 93 -22 42 -28 47 -57 47 -18 0 -53 -10 -77 -22z"/>
<path d="M18270 26600 c0 -5 5 -10 10 -10 6 0 10 5 10 10 0 6 -4 10 -10 10 -5
0 -10 -4 -10 -10z"/>
<path d="M12957 26568 c-40 -25 -47 -34 -42 -52 21 -64 19 -75 -19 -97 -20
-11 -36 -28 -36 -37 0 -10 10 -56 22 -104 20 -77 21 -93 10 -133 -12 -45 -11
-47 29 -121 35 -63 41 -82 36 -115 -10 -75 16 -104 49 -54 27 41 29 96 5 136
-26 42 -27 81 -3 102 14 13 39 17 104 17 100 0 111 8 129 90 6 30 18 67 25 82
8 15 14 44 14 64 0 23 12 57 31 91 17 29 28 60 25 68 -4 10 -27 15 -83 17 -53
2 -78 7 -79 16 -1 6 -2 17 -3 22 0 6 -12 10 -25 10 -13 0 -37 7 -52 15 -43 22
-83 17 -137 -17z"/>
<path d="M12501 26512 c-14 -11 -20 -21 -14 -25 14 -9 47 17 42 32 -3 9 -11 7
-28 -7z"/>
<path d="M7013 26407 c-58 -80 -2006 -2691 -2025 -2714 -6 -8 28 -34 114 -89
68 -42 147 -92 176 -111 l53 -33 -35 -44 c-20 -24 -36 -52 -36 -62 1 -10 22
-118 48 -239 l47 -220 210 -5 c199 -5 212 -6 243 -28 35 -25 41 -57 21 -109
-6 -15 -15 -55 -20 -88 -5 -33 -12 -74 -15 -92 -5 -23 0 -39 17 -63 21 -28 24
-42 24 -133 0 -56 -6 -183 -12 -282 -7 -99 -18 -269 -24 -378 -11 -190 -10
-199 8 -220 24 -27 157 -253 183 -310 30 -65 25 -93 -31 -192 -92 -161 -147
-224 -256 -290 -34 -20 -60 -42 -58 -48 2 -7 13 -43 25 -81 l20 -69 -21 -45
c-24 -50 -26 -35 25 -207 39 -130 42 -169 17 -248 -17 -56 -19 -76 -11 -120
19 -97 41 -159 77 -211 42 -62 41 -102 -6 -178 -39 -62 -40 -86 -5 -90 48 -5
53 -31 19 -94 -16 -31 -45 -72 -63 -91 -33 -36 -33 -47 2 -73 12 -8 38 -30 58
-48 20 -18 53 -38 74 -43 20 -6 47 -22 61 -35 22 -22 24 -31 21 -107 l-3 -82
85 -41 c92 -44 165 -107 176 -150 4 -17 0 -46 -11 -76 -15 -42 -16 -56 -6 -88
10 -33 18 -41 47 -49 75 -21 114 -68 129 -155 5 -29 9 -36 18 -27 16 16 62 14
76 -3 10 -11 9 -26 -3 -67 -16 -51 -15 -53 10 -104 24 -46 26 -56 15 -86 -11
-31 -10 -35 30 -75 109 -111 856 -371 1604 -558 1415 -353 3016 -537 4976
-572 395 -7 427 -5 464 36 32 35 65 25 125 -36 30 -31 64 -60 74 -66 11 -6
117 -13 245 -15 252 -5 276 -10 381 -73 117 -71 130 -73 340 -59 170 11 190
15 247 41 73 34 96 62 117 143 17 65 43 95 84 95 14 0 43 12 63 26 35 24 44
39 65 109 12 37 96 95 138 95 31 0 85 -29 128 -68 l26 -24 24 36 c28 44 56 53
111 36 59 -17 86 -39 161 -129 36 -44 81 -91 100 -106 44 -33 109 -44 134 -22
10 9 41 17 77 19 55 3 60 1 72 -22 7 -14 13 -47 13 -73 0 -44 5 -53 48 -100
66 -70 82 -96 82 -130 0 -20 14 -43 48 -80 27 -29 59 -67 72 -86 15 -22 45
-44 89 -63 57 -26 72 -29 121 -23 30 3 105 10 165 15 349 26 468 41 480 60 3
5 36 7 73 3 80 -6 135 -35 201 -103 26 -27 77 -63 118 -83 46 -24 82 -50 100
-74 15 -21 40 -48 56 -61 32 -28 33 -41 7 -84 -11 -18 -20 -50 -20 -70 0 -59
-22 -68 -173 -68 -149 0 -179 9 -226 68 -29 37 -66 61 -77 49 -3 -2 11 -23 30
-46 58 -69 68 -135 40 -251 -18 -76 -13 -171 17 -294 31 -132 28 -149 -36
-212 -60 -60 -70 -82 -70 -164 0 -44 6 -63 28 -95 48 -71 30 -132 -52 -175
-39 -20 -10 -34 40 -19 46 14 88 52 161 144 25 33 74 95 107 137 75 96 116
119 215 123 39 1 78 5 86 9 8 3 32 31 54 62 44 64 83 91 144 100 51 8 72 26
72 61 0 24 -2 25 -42 20 -56 -8 -91 12 -111 62 -29 70 15 154 143 273 127 120
256 185 392 199 43 4 82 10 88 14 17 10 11 37 -12 63 l-23 24 28 24 c15 13 40
26 55 29 56 12 73 22 145 87 64 58 83 84 142 193 90 167 127 200 311 285 77
35 195 91 264 125 69 34 161 76 205 94 44 17 112 49 150 69 58 31 74 45 93 82
15 29 39 56 67 73 52 33 73 78 85 187 7 58 5 94 -6 146 -30 139 -32 162 -39
329 -11 256 10 325 105 346 31 7 59 24 96 59 58 55 84 65 151 57 35 -4 54 -13
85 -43 76 -74 155 -201 231 -374 30 -68 47 -84 117 -104 37 -11 68 -29 96 -57
53 -52 83 -54 132 -7 20 19 58 45 84 57 25 12 53 32 61 45 9 13 52 62 97 111
94 101 119 147 156 280 28 101 61 155 94 155 37 0 73 -44 79 -96 5 -43 9 -49
32 -52 17 -2 42 9 75 32 74 54 126 84 156 91 21 6 30 2 43 -19 16 -24 16 -27
-3 -58 -11 -18 -69 -67 -129 -108 -119 -83 -149 -121 -199 -254 -15 -39 -42
-102 -60 -140 -43 -89 -50 -140 -30 -208 38 -130 204 -196 274 -109 32 41 44
93 56 246 7 88 18 170 24 182 7 12 34 47 60 77 27 31 57 80 71 117 17 44 41
82 78 120 83 87 261 319 290 377 30 62 35 124 11 149 -16 16 -20 14 -60 -30
-43 -49 -64 -56 -98 -35 -18 12 -26 7 -73 -43 -55 -59 -77 -70 -186 -89 -35
-6 -88 -22 -118 -36 -69 -30 -101 -30 -181 -2 -56 20 -66 21 -95 9 -96 -41
-172 -20 -276 73 -51 45 -84 67 -116 75 -56 14 -71 37 -80 123 -13 122 -74
173 -108 88 -21 -55 -44 -61 -172 -50 -113 10 -158 24 -163 53 -6 29 14 43
109 77 105 38 126 53 175 123 19 29 47 68 61 87 21 29 24 43 21 88 -6 68 -41
106 -117 129 -49 14 -59 14 -110 -1 -31 -8 -81 -20 -111 -26 -115 -22 -163
-69 -431 -415 -105 -135 -167 -273 -238 -530 -75 -272 -140 -446 -184 -493
-35 -37 -53 -44 -71 -26 -33 33 -7 180 53 304 31 63 32 67 26 165 -6 87 -4
108 15 160 12 33 36 119 54 190 42 163 134 378 179 418 18 15 45 39 60 52 33
28 33 51 7 193 -17 88 -6 143 44 211 41 58 99 102 239 181 111 62 303 192 447
300 94 71 134 92 234 119 43 12 93 31 110 43 47 32 144 128 177 175 20 29 48
51 87 70 84 41 93 66 103 267 8 170 18 215 74 326 15 30 42 73 60 95 18 22 46
63 63 90 17 28 45 61 61 73 54 39 63 63 74 195 14 177 14 179 -18 202 -50 36
-131 119 -143 148 -6 15 -22 31 -34 36 -13 5 -37 14 -55 21 -34 13 -50 37 -33
54 18 18 11 35 -20 51 -16 8 -37 29 -45 45 -19 37 -59 40 -115 9 -43 -24 -64
-57 -75 -114 -7 -41 -29 -75 -50 -75 -19 0 -52 41 -80 102 -33 70 -45 80 -86
76 -44 -4 -65 -36 -90 -138 -11 -47 -33 -104 -48 -127 -19 -28 -35 -77 -50
-145 -23 -108 -56 -178 -96 -204 -13 -9 -55 -21 -93 -26 -58 -9 -77 -8 -126 7
-32 10 -68 26 -79 36 -21 17 -21 18 -3 37 10 11 49 30 86 41 84 26 101 41 93
82 -5 24 0 36 23 60 22 23 24 29 11 29 -24 0 -21 33 3 55 11 10 25 37 31 60 6
23 34 70 67 112 32 39 73 101 92 137 40 75 37 86 -32 93 -40 4 -44 2 -60 -26
-13 -24 -25 -31 -63 -37 -30 -4 -61 -2 -85 6 -36 12 -41 11 -70 -11 -18 -13
-47 -39 -64 -56 -40 -40 -54 -41 -62 -5 -9 35 -32 62 -56 62 -10 0 -39 -12
-66 -27 -53 -29 -96 -27 -107 6 -3 10 -29 29 -57 41 -49 21 -52 21 -87 5 -41
-18 -72 -11 -119 25 -17 14 -40 20 -74 20 -58 0 -104 19 -143 60 -16 17 -32
30 -37 30 -4 0 -29 -21 -55 -46 -87 -84 -113 -91 -113 -32 0 25 12 42 61 87
50 46 64 66 74 107 7 27 9 56 5 64 -14 26 -97 45 -145 32 -73 -19 -105 4 -105
79 0 43 -15 65 -51 78 -50 17 -69 13 -110 -24 -22 -19 -46 -35 -54 -35 -22 0
-43 39 -51 96 -9 72 -15 79 -54 65 -73 -25 -101 -5 -65 46 17 25 13 30 -45 50
-48 17 -70 16 -92 -4 -32 -28 -53 -6 -53 56 l0 51 -85 39 c-47 21 -107 46
-133 56 -27 9 -68 34 -93 56 -47 40 -68 42 -78 6 -18 -67 2 -123 67 -188 56
-56 65 -87 42 -139 -28 -62 -18 -157 23 -215 33 -47 40 -82 22 -116 -14 -26
-32 -24 -64 6 -15 14 -31 25 -37 25 -13 0 -27 -36 -34 -90 -3 -25 -25 -81 -49
-125 -64 -118 -113 -145 -137 -75 -11 30 -32 39 -44 20 -13 -21 -47 -8 -88 35
-33 34 -51 45 -74 45 -33 0 -47 -12 -58 -50 -12 -40 -44 -68 -104 -91 -31 -11
-71 -30 -89 -41 -27 -17 -38 -19 -58 -9 -39 17 -34 43 36 181 4 8 17 16 29 18
32 5 26 21 -30 75 -29 27 -66 74 -83 105 -41 72 -54 80 -108 63 -39 -11 -133
-29 -182 -34 -10 -1 -23 6 -30 15 -16 26 2 49 50 63 22 6 58 24 80 38 21 15
47 27 57 27 32 0 30 29 -6 75 -25 33 -36 59 -41 98 -8 60 -13 70 -43 86 -29
15 -75 14 -115 -3 -106 -44 -224 -62 -273 -42 -30 13 -75 63 -88 98 -5 14 -13
16 -36 12 -22 -5 -37 -1 -56 14 -14 11 -39 24 -56 27 -16 4 -39 20 -51 36 -16
22 -30 29 -55 29 -24 0 -44 10 -72 35 -59 53 -79 48 -164 -38 -40 -41 -93 -86
-119 -101 -46 -26 -55 -28 -232 -34 -165 -7 -188 -9 -213 -28 -37 -28 -53 -60
-53 -110 0 -46 19 -69 87 -103 67 -34 77 -62 69 -207 -6 -105 -5 -124 9 -138
9 -9 24 -16 34 -16 28 0 60 -43 70 -94 5 -26 18 -57 29 -69 12 -12 34 -56 51
-97 29 -72 43 -89 121 -148 16 -13 30 -32 30 -43 0 -18 -10 -23 -65 -31 -18
-3 -20 -11 -20 -68 -1 -89 1 -84 -56 -121 -100 -64 -103 -108 -12 -156 32 -17
83 -34 113 -38 121 -15 158 -51 280 -270 40 -71 94 -159 120 -195 26 -36 62
-93 79 -127 17 -34 36 -65 43 -70 7 -4 38 -10 68 -13 45 -4 57 -9 69 -31 22
-39 8 -74 -37 -92 -21 -8 -43 -21 -49 -29 -6 -7 -23 -67 -36 -133 -14 -66 -34
-143 -45 -172 -21 -55 -158 -285 -229 -384 -24 -32 -43 -68 -43 -80 0 -12 27
-47 69 -87 75 -73 100 -116 156 -267 55 -147 130 -288 175 -329 29 -26 51 -36
87 -41 86 -11 108 -19 111 -43 3 -17 -7 -28 -41 -49 -89 -53 -130 -171 -73
-208 57 -38 62 -175 6 -175 -10 0 -31 11 -47 24 -68 57 -97 38 -113 -73 -6
-40 -15 -81 -20 -92 -13 -24 -62 -25 -113 -4 -61 25 -84 20 -112 -25 -14 -22
-29 -40 -34 -40 -5 0 -19 12 -31 28 -19 23 -21 35 -16 84 8 69 -6 102 -63 147
-46 37 -117 70 -149 71 -12 0 -45 -11 -73 -25 -39 -20 -54 -23 -69 -15 -27 14
-25 39 5 80 14 19 25 42 25 51 0 9 -35 48 -77 86 -111 98 -121 111 -144 188
-11 39 -38 108 -59 155 -22 47 -59 159 -84 249 -38 138 -45 172 -40 220 5 46
3 60 -10 74 -23 23 -88 22 -167 -3 -35 -10 -107 -24 -159 -30 -52 -6 -126 -20
-164 -32 -80 -23 -111 -20 -169 20 -58 40 -115 57 -357 106 l-210 43 -60 57
c-33 31 -81 66 -107 78 -26 11 -65 36 -86 54 -34 32 -41 34 -101 32 -50 -1
-69 3 -93 20 -17 12 -52 26 -78 32 -26 6 -68 25 -92 43 -39 28 -53 32 -107 32
-56 0 -70 -5 -163 -58 -104 -59 -128 -65 -182 -46 -41 14 -54 38 -40 77 9 26
6 39 -27 103 -20 41 -52 111 -70 157 -31 78 -147 287 -167 299 -5 3 -22 -4
-37 -15 -63 -47 -126 -32 -180 42 -54 73 -61 116 -59 387 l2 244 33 87 c40
104 42 146 9 213 -42 85 -34 108 48 150 43 21 50 32 78 113 13 37 35 73 64
102 37 38 47 58 65 125 12 44 28 95 37 113 17 36 71 82 95 82 8 0 44 18 80 40
42 25 73 37 83 33 22 -8 36 15 29 47 -23 107 -79 160 -167 160 -24 0 -70 9
-101 20 -32 11 -92 26 -134 34 -101 19 -110 23 -127 57 -13 24 -13 30 0 43 37
37 128 32 208 -12 44 -23 51 -25 80 -13 87 36 98 36 164 2 34 -17 71 -31 82
-31 28 0 51 49 51 109 0 70 13 80 103 79 137 -3 202 49 237 188 11 43 29 100
40 126 25 60 25 71 -3 104 -23 26 -28 28 -154 34 -123 6 -135 8 -198 41 -81
41 -115 78 -115 125 0 25 6 38 25 50 42 28 109 14 242 -49 65 -32 130 -57 145
-57 39 0 61 29 82 107 9 37 29 86 43 110 31 53 26 87 -16 101 -43 15 -66 55
-55 95 10 33 21 41 111 76 72 29 87 27 123 -18 39 -51 60 -57 116 -35 39 15
44 20 39 38 -17 56 -17 64 4 76 17 8 31 8 57 0 52 -18 76 -7 127 58 59 76 84
125 97 192 23 119 -16 199 -129 266 -23 13 -31 26 -31 46 0 16 -13 42 -32 63
-23 27 -32 49 -36 85 -5 52 -2 55 73 115 l30 23 -21 29 c-12 16 -25 43 -28 60
-9 37 -39 67 -86 82 -19 6 -48 27 -63 46 -21 26 -36 35 -58 35 -17 0 -74 9
-127 20 -66 13 -107 17 -127 12 -34 -10 -35 -19 -15 -117 10 -50 19 -66 53
-97 56 -51 56 -93 -2 -152 -53 -55 -63 -102 -60 -296 2 -149 1 -159 -26 -230
-32 -87 -73 -130 -120 -130 -40 0 -67 20 -106 78 -18 26 -58 74 -89 107 -56
59 -57 61 -64 134 -7 80 4 113 44 126 28 9 26 16 -22 70 -24 27 -54 69 -68 93
-32 58 -74 91 -97 76 -25 -16 -43 -97 -43 -196 0 -78 -2 -88 -22 -102 -12 -9
-30 -16 -39 -16 -25 0 -69 39 -69 61 0 52 -33 120 -75 155 -24 19 -49 49 -56
66 -11 28 -11 32 9 49 25 20 28 47 8 75 -14 18 -16 18 -44 2 -48 -28 -86 -23
-132 18 -47 42 -51 70 -15 104 14 13 25 27 25 30 0 4 -13 21 -30 38 -46 49
-35 82 27 82 18 0 33 4 33 9 0 6 -31 38 -69 72 -76 67 -78 72 -112 203 -18 70
-31 98 -61 133 -21 24 -41 56 -44 70 -5 19 -21 32 -61 49 -29 13 -56 31 -59
39 -9 24 -21 18 -33 -17 -6 -18 -21 -43 -33 -55 -21 -23 -21 -25 -5 -52 18
-30 23 -91 8 -91 -4 0 -20 -11 -35 -25 -24 -22 -26 -31 -26 -100 0 -62 4 -82
20 -102 26 -33 25 -55 -3 -90 -13 -15 -29 -47 -36 -71 -11 -38 -10 -46 8 -75
32 -51 66 -78 125 -98 31 -10 74 -33 97 -51 30 -24 54 -34 92 -38 51 -5 52 -5
59 -45 6 -36 3 -43 -22 -65 -16 -14 -36 -42 -44 -64 l-16 -38 27 5 c54 10 62
-4 62 -105 0 -51 -5 -100 -10 -111 -6 -10 -31 -40 -57 -66 -26 -26 -57 -58
-68 -71 -12 -14 -36 -37 -54 -52 -38 -33 -37 -49 11 -173 28 -75 29 -80 13
-92 -25 -18 -51 -16 -128 7 -89 28 -105 51 -87 129 29 125 27 160 -8 141 -16
-8 -24 -6 -41 12 -11 12 -20 27 -20 33 0 16 -51 62 -82 74 -21 8 -31 6 -51
-10 -14 -10 -31 -19 -37 -19 -17 0 -5 -58 17 -82 12 -14 25 -17 49 -12 47 9
74 -4 90 -41 27 -64 -2 -121 -68 -131 -28 -5 -41 0 -77 30 -43 36 -74 45 -86
26 -8 -13 -46 -13 -116 2 -75 15 -193 -2 -266 -38 -43 -22 -59 -25 -97 -20
-25 4 -51 13 -58 19 -7 7 -34 25 -59 40 -34 19 -56 42 -78 82 -32 56 -49 66
-71 40 -25 -31 -58 -17 -142 61 -46 41 -88 87 -95 102 -7 15 -12 54 -13 88 0
49 -4 65 -21 80 -32 29 -92 24 -169 -13 -36 -17 -87 -34 -114 -37 -57 -7 -86
-28 -79 -57 6 -23 29 -24 69 -5 75 37 219 96 235 96 24 0 49 -38 49 -73 0 -15
-9 -46 -20 -68 -18 -35 -33 -46 -125 -89 -132 -63 -149 -84 -142 -165 3 -33
15 -89 26 -125 42 -133 19 -170 -96 -149 -82 15 -108 76 -56 131 26 27 26 28
7 49 -10 12 -42 32 -71 44 -48 22 -52 26 -67 78 -17 57 -52 97 -86 97 -10 0
-35 -7 -56 -16 -29 -12 -54 -15 -94 -10 -30 4 -105 11 -167 16 -95 7 -123 13
-190 43 -43 19 -105 43 -137 52 -40 11 -71 28 -94 51 -30 30 -34 39 -29 71 8
45 77 119 121 129 17 3 37 11 44 16 29 24 0 124 -53 182 -21 22 -32 26 -81 26
-76 0 -127 26 -218 109 -39 37 -99 87 -131 111 -108 79 -215 190 -242 250 -29
66 -55 95 -105 121 -52 26 -75 24 -108 -12 -26 -29 -36 -32 -119 -42 -79 -8
-94 -7 -116 7 -28 18 -32 44 -11 84 7 15 16 44 20 65 4 21 10 45 13 53 13 34
-26 8 -70 -47 -26 -32 -58 -61 -71 -65 -34 -8 -82 20 -114 68 -24 36 -27 53
-30 134 -3 65 1 109 12 149 25 83 2 100 -62 44 -81 -72 -167 -86 -285 -47
l-69 22 -54 -29 c-53 -29 -55 -29 -111 -15 -32 7 -95 15 -141 17 -92 5 -111
18 -89 64 21 41 95 60 202 53 198 -14 228 -12 268 19 21 16 35 33 32 38 -9 14
-219 11 -307 -5 -43 -7 -97 -11 -120 -9 -32 4 -58 -2 -103 -22 -33 -14 -80
-29 -105 -32 -69 -9 -79 -17 -86 -73 -9 -69 -24 -88 -58 -72 -17 8 -29 22 -33
43 -7 36 -25 46 -59 30 -39 -17 -62 1 -70 57 -6 38 -15 55 -54 93 -26 25 -55
58 -65 72 -9 15 -48 47 -85 72 -42 27 -81 63 -101 92 -24 35 -163 223 -194
260 -1 2 -29 -34 -62 -80z"/>
<path d="M11660 26431 c-49 -8 -49 -31 -2 -104 23 -34 46 -74 53 -89 17 -39
26 -35 33 16 4 27 16 52 31 66 66 62 -5 131 -115 111z"/>
<path d="M12525 26423 c-55 -11 -83 -11 -132 -2 -46 8 -70 8 -97 -1 -42 -14
-43 -16 -14 -47 20 -21 21 -26 9 -59 -12 -33 -11 -37 9 -51 21 -15 21 -21 18
-148 -3 -114 -6 -136 -22 -154 -36 -40 -125 -21 -152 31 -22 42 -35 24 -18
-24 18 -52 37 -73 94 -106 65 -36 107 -79 147 -147 50 -84 125 -175 145 -175
10 0 20 10 24 25 8 34 77 91 121 102 52 12 59 29 44 109 -9 50 -10 81 -3 113
14 58 2 85 -51 119 -59 37 -142 122 -150 154 -5 19 0 34 24 64 24 30 28 44 23
67 -5 23 1 38 26 73 46 65 40 73 -45 57z"/>
<path d="M18536 26433 c-9 -9 -7 -33 3 -33 12 0 22 28 12 34 -5 3 -11 3 -15
-1z"/>
<path d="M10552 26394 c-46 -24 -76 -34 -109 -34 -88 0 -147 -47 -215 -175
-35 -64 -51 -84 -85 -103 -51 -28 -54 -48 -14 -94 15 -18 36 -47 45 -65 25
-49 52 -63 122 -63 78 0 127 -29 132 -78 3 -26 -2 -35 -30 -52 -28 -18 -43
-20 -97 -16 -119 10 -206 -33 -185 -91 5 -14 20 -35 35 -45 30 -23 159 -58
213 -58 60 0 241 -47 305 -80 75 -38 121 -77 121 -103 0 -11 -10 -36 -22 -54
-20 -30 -27 -33 -56 -28 -18 3 -47 1 -65 -6 -28 -10 -42 -8 -92 9 -42 15 -100
23 -195 28 -183 9 -217 9 -235 -6 -23 -19 -18 -81 13 -141 26 -52 31 -56 130
-104 107 -52 157 -91 173 -134 6 -14 14 -59 19 -100 11 -83 28 -117 68 -132
54 -21 237 -49 323 -49 77 0 93 3 144 30 33 17 72 30 94 30 44 0 147 30 190
56 17 10 43 35 57 55 14 21 39 43 56 50 42 17 68 1 134 -80 28 -35 62 -69 75
-77 61 -33 208 -94 228 -94 46 0 201 51 201 66 0 3 -10 18 -22 34 -17 24 -29
30 -58 30 -45 0 -60 15 -60 57 0 24 10 44 38 74 20 23 46 60 57 83 16 33 26
42 51 44 19 2 36 -3 44 -12 14 -18 80 -22 80 -5 0 6 -41 55 -91 110 -74 80
-98 100 -128 105 -79 14 -124 57 -174 162 -25 53 -29 73 -27 130 6 139 3 169
-27 234 -29 65 -29 66 -22 238 3 80 1 89 -33 161 -28 60 -45 83 -79 107 -24
16 -53 39 -63 51 -41 45 -50 16 -30 -94 15 -80 15 -90 -1 -153 -11 -39 -19
-105 -19 -159 l-1 -92 -40 -41 c-33 -34 -45 -40 -74 -38 -27 2 -38 10 -53 38
-18 32 -19 48 -13 195 6 138 4 167 -10 203 -15 37 -39 62 -59 62 -3 0 -6 -24
-6 -54 0 -69 -14 -81 -89 -78 -50 3 -59 0 -81 -22 -13 -15 -29 -26 -36 -26
-32 0 -46 82 -18 98 28 15 9 58 -54 123 -72 73 -96 77 -142 19 -33 -42 -62
-50 -101 -30 -24 14 -24 41 1 82 26 42 25 88 0 116 -29 30 -64 27 -138 -14z"/>
<path d="M18421 26311 c-24 -34 -26 -41 -8 -41 16 0 57 42 57 58 0 22 -28 12
-49 -17z"/>
<path d="M14965 25210 c-18 -19 -17 -20 1 -20 20 0 44 17 44 32 0 15 -27 8
-45 -12z"/>
<path d="M15189 25098 c-6 -20 -2 -57 6 -55 14 5 19 57 6 57 -6 0 -11 -1 -12
-2z"/>
<path d="M15942 24863 c2 -12 12 -18 28 -18 36 0 33 29 -3 33 -23 3 -28 0 -25
-15z"/>
<path d="M12581 24852 c-5 -10 -13 -53 -17 -96 -8 -89 -24 -115 -90 -149 l-45
-23 39 -22 c22 -12 73 -28 115 -36 57 -11 86 -23 122 -50 26 -20 55 -36 65
-36 21 0 78 64 86 97 8 28 -5 50 -99 168 -136 170 -155 186 -176 147z"/>
<path d="M15652 24854 c-36 -25 -53 -70 -54 -142 -2 -71 6 -93 54 -154 44 -57
65 -51 138 32 33 39 60 80 60 91 0 11 -9 37 -20 59 -11 22 -20 48 -20 58 0 11
-9 31 -21 46 -17 21 -29 26 -68 26 -26 0 -56 -7 -69 -16z"/>
<path d="M14220 24381 c0 -12 5 -21 10 -21 6 0 10 6 10 14 0 8 -4 18 -10 21
-5 3 -10 -3 -10 -14z"/>
<path d="M14564 23485 c-11 -16 -14 -36 -10 -57 41 -232 65 -480 52 -532 -3
-14 -24 -46 -46 -71 -22 -25 -40 -50 -40 -56 0 -17 24 -9 53 19 25 24 36 27
92 27 75 0 105 -21 125 -88 21 -71 25 -71 95 -3 68 66 84 95 105 186 16 71 43
123 76 149 35 28 44 27 90 -10 26 -21 45 -28 60 -25 31 8 71 -9 116 -50 l39
-35 72 7 c81 7 95 16 97 59 4 55 0 64 -35 91 -34 26 -35 26 -75 10 -51 -20
-99 -20 -127 -1 -12 8 -36 40 -53 71 -41 70 -81 97 -200 129 -173 48 -217 65
-258 100 -47 41 -53 42 -77 15 -32 -36 -73 -18 -90 40 -9 29 -24 50 -36 50 -5
0 -16 -11 -25 -25z"/>
<path d="M18415 23359 c-4 -6 -4 -13 -1 -16 8 -8 36 5 36 17 0 13 -27 13 -35
-1z"/>
<path d="M16175 23131 c-7 -12 12 -24 25 -16 11 7 4 25 -10 25 -5 0 -11 -4
-15 -9z"/>
<path d="M16020 22996 c0 -15 37 -32 47 -22 3 3 3 12 0 21 -8 19 -47 20 -47 1z"/>
<path d="M18155 22700 c3 -5 8 -10 11 -10 2 0 4 5 4 10 0 6 -5 10 -11 10 -5 0
-7 -4 -4 -10z"/>
<path d="M15303 22560 c-19 -11 -35 -31 -39 -47 -3 -15 -13 -54 -21 -85 -9
-32 -12 -65 -9 -75 6 -14 15 -4 41 45 18 35 52 83 74 107 23 25 41 51 41 60 0
22 -48 19 -87 -5z"/>
<path d="M15839 22504 c-18 -22 -15 -68 7 -101 10 -15 21 -39 24 -53 3 -14 12
-25 20 -25 32 0 7 167 -29 189 -5 3 -14 -1 -22 -10z"/>
<path d="M22264 21226 c-11 -17 -26 -30 -32 -29 -25 6 -31 -39 -28 -220 4
-208 -5 -176 83 -286 22 -27 26 -41 23 -75 -7 -79 -2 -142 14 -181 9 -21 21
-68 26 -104 8 -56 14 -69 46 -99 35 -31 36 -35 29 -75 -8 -44 -13 -190 -6
-219 2 -13 10 -16 31 -11 20 4 34 -1 49 -16 21 -21 22 -30 19 -172 -2 -122 0
-151 11 -159 22 -13 63 12 96 60 50 72 118 124 212 164 106 45 110 48 152 111
19 28 52 69 74 92 23 24 50 66 62 95 27 68 61 90 99 65 19 -13 26 -26 26 -50
l1 -32 29 33 c17 18 30 43 30 56 0 37 54 78 99 74 29 -2 39 -9 50 -33 21 -42
17 -148 -7 -220 -23 -66 -20 -82 8 -47 20 25 40 102 40 160 1 20 7 63 15 95
14 60 8 105 -24 190 -15 39 -14 92 2 105 10 9 23 4 53 -16 21 -15 41 -30 42
-35 2 -4 24 -23 48 -41 25 -19 63 -57 85 -85 52 -65 67 -65 71 -4 2 37 7 49
21 51 34 7 64 -8 87 -42 48 -70 86 -68 75 4 -35 220 -90 319 -121 217 -13 -46
-43 -47 -84 -1 -17 20 -37 50 -42 66 -13 37 -38 37 -38 -1 0 -16 5 -42 10 -57
14 -35 5 -58 -25 -72 -45 -21 -138 24 -190 92 l-27 36 21 69 c24 77 25 84 12
77 -4 -3 -14 -26 -21 -51 -21 -76 -75 -84 -109 -17 -10 20 -38 58 -60 84 -33
36 -44 59 -52 105 -6 32 -15 62 -20 67 -5 6 -24 -6 -48 -31 -21 -23 -56 -50
-77 -61 -22 -11 -54 -42 -73 -68 -46 -65 -92 -114 -108 -114 -8 0 -25 7 -38
16 -27 18 -21 20 -91 -31 -19 -14 -26 -14 -74 2 -44 15 -55 23 -64 50 -15 44
-22 48 -51 33 -17 -9 -29 -29 -39 -65 -17 -55 -54 -99 -82 -93 -33 6 -55 52
-65 134 -11 89 -30 156 -66 227 -20 41 -23 57 -17 107 6 51 3 64 -16 97 -13
21 -26 54 -29 74 l-6 36 -21 -31z"/>
<path d="M5013 20763 c-35 -24 -32 -96 7 -147 33 -43 37 -77 15 -116 -8 -14
-14 -28 -15 -32 0 -15 36 6 75 43 22 20 60 54 84 75 51 45 39 56 -23 20 -50
-29 -88 -33 -105 -12 -19 23 -9 69 17 82 41 20 45 29 32 68 -9 30 -16 36 -38
35 -15 0 -37 -7 -49 -16z"/>
<path d="M5018 20353 c-20 -24 -29 -51 -18 -58 11 -7 70 43 70 61 0 20 -34 17
-52 -3z"/>
<path d="M5500 20310 c0 -11 5 -20 10 -20 6 0 10 9 10 20 0 11 -4 20 -10 20
-5 0 -10 -9 -10 -20z"/>
<path d="M5592 20279 c2 -18 9 -34 16 -37 10 -3 13 5 10 29 -2 18 -9 34 -16
37 -10 3 -13 -5 -10 -29z"/>
<path d="M21440 19655 c-25 -8 -94 -18 -155 -23 -110 -10 -247 -47 -246 -67 0
-5 20 -13 43 -16 24 -4 61 -12 83 -18 84 -23 126 -15 242 45 107 56 126 71
117 86 -7 11 -30 9 -84 -7z"/>
<path d="M5460 19112 c0 -4 22 -24 50 -45 105 -79 105 -180 -1 -136 -39 16
-47 5 -21 -29 12 -15 31 -47 42 -72 11 -24 50 -74 85 -111 65 -67 125 -171
125 -216 0 -19 -6 -23 -30 -23 -40 0 -38 -18 6 -61 83 -79 112 -141 79 -169
-8 -7 -15 -16 -15 -20 0 -13 71 -42 91 -37 28 8 40 -24 33 -85 -6 -52 -5 -54
41 -108 25 -30 65 -77 87 -104 23 -26 57 -55 77 -63 34 -14 36 -14 54 8 17 21
19 37 15 119 -5 106 -13 127 -88 230 -64 86 -86 145 -106 282 -9 62 -24 129
-34 149 -11 20 -64 82 -120 139 -55 56 -143 153 -195 216 -53 62 -105 120
-117 129 -24 16 -58 20 -58 7z"/>
<path d="M22412 18992 c-6 -21 -9 -46 -7 -57 3 -11 9 -65 14 -119 9 -87 13
-102 37 -127 14 -15 32 -38 38 -51 23 -46 56 -35 123 41 87 97 105 129 101
186 l-3 47 -55 -45 c-60 -49 -101 -70 -124 -61 -17 6 -33 44 -42 99 -8 49 -38
111 -57 118 -10 4 -18 -6 -25 -31z"/>
<path d="M16535 18957 c-23 -18 -17 -28 22 -33 15 -2 47 -6 69 -10 48 -7 62 5
34 31 -26 24 -99 31 -125 12z"/>
<path d="M22018 18561 c-35 -30 -90 -61 -108 -61 -18 0 -83 -30 -78 -36 3 -3
34 2 69 11 44 12 82 15 120 11 79 -9 103 15 79 78 -13 34 -41 33 -82 -3z"/>
<path d="M21610 18497 c0 -24 36 -47 73 -47 20 0 37 5 37 10 0 6 -13 10 -28
10 -16 0 -37 9 -47 20 -21 23 -35 26 -35 7z"/>
<path d="M20474 18090 c-12 -5 -37 -27 -55 -49 -23 -29 -45 -45 -73 -52 -117
-31 -119 -37 -113 -323 4 -179 9 -240 27 -321 19 -88 21 -110 11 -182 -12
-100 -35 -147 -87 -182 -22 -15 -51 -49 -65 -75 -25 -45 -36 -54 -130 -101
-57 -29 -115 -56 -129 -60 -14 -4 -113 -49 -220 -99 -107 -51 -237 -112 -287
-136 -63 -29 -95 -50 -99 -64 -4 -12 -29 -55 -57 -96 -28 -41 -66 -113 -84
-160 -18 -47 -47 -104 -63 -127 -36 -50 -37 -60 -6 -75 28 -12 42 -43 52 -110
11 -83 1 -101 -104 -194 -54 -46 -115 -93 -138 -104 -22 -11 -121 -36 -220
-55 -223 -44 -236 -48 -274 -91 -41 -47 -38 -70 14 -118 80 -74 81 -119 0
-231 -60 -85 -314 -333 -409 -400 -44 -31 -109 -85 -145 -119 -55 -53 -74 -65
-118 -75 -29 -6 -70 -22 -90 -36 -32 -22 -48 -25 -120 -25 -57 0 -100 6 -140
20 -31 11 -68 18 -82 15 -38 -8 -64 16 -63 56 2 45 86 223 115 243 12 9 30 16
40 16 24 0 23 10 -8 55 -19 29 -30 69 -49 181 -13 78 -31 158 -40 176 -20 39
-114 138 -132 138 -7 0 -37 -38 -67 -84 -39 -58 -66 -89 -90 -100 -42 -20 -40
-20 -82 0 -44 21 -68 65 -60 109 4 18 31 70 61 115 35 52 56 96 60 124 7 47
-8 117 -28 135 -12 9 -36 58 -65 133 -15 38 -54 60 -121 69 -31 5 -81 19 -112
33 -46 21 -67 25 -134 23 l-80 -3 2 -29 c1 -17 5 -47 9 -68 5 -33 2 -41 -30
-77 -23 -25 -36 -50 -36 -68 0 -35 -31 -135 -49 -156 -20 -23 -42 -20 -67 12
-15 18 -26 24 -32 17 -6 -5 -22 -58 -36 -116 -20 -80 -27 -134 -27 -215 -1
-176 11 -231 68 -327 28 -45 55 -97 62 -116 6 -19 11 -94 11 -167 0 -160 -14
-208 -89 -300 -55 -68 -115 -103 -186 -112 -50 -5 -54 -2 -144 114 -70 90 -99
153 -122 272 -10 53 -28 143 -40 199 -18 87 -20 113 -12 165 8 48 7 75 -3 116
-18 67 -18 91 0 133 8 19 17 57 21 84 3 28 15 76 27 107 27 76 19 94 -18 39
-101 -154 -184 -173 -184 -43 0 68 22 120 76 183 42 49 107 178 124 245 12 50
47 97 66 90 7 -3 27 7 45 21 30 26 31 26 60 9 29 -17 29 -17 47 13 11 20 31
36 57 45 22 8 98 35 170 61 121 44 135 47 200 41 172 -13 265 -6 265 22 0 8
-68 61 -114 90 -16 9 -49 11 -127 6 -91 -5 -108 -4 -122 11 -9 9 -17 20 -17
25 0 5 -9 14 -21 21 -18 9 -32 5 -90 -25 -38 -20 -92 -41 -121 -47 -68 -15
-108 -35 -135 -69 -12 -15 -36 -33 -53 -40 -16 -7 -30 -18 -30 -25 0 -20 -40
-25 -71 -9 -15 7 -50 14 -77 14 -34 0 -57 6 -74 19 -25 20 -25 20 -61 -5 -20
-13 -41 -24 -46 -24 -24 0 -51 41 -51 75 0 44 -18 52 -78 36 -38 -10 -48 -9
-68 4 -20 13 -24 24 -24 63 0 45 9 65 55 129 10 13 12 23 6 27 -5 3 -39 -23
-74 -58 -78 -77 -255 -197 -324 -220 -35 -12 -66 -34 -112 -80 l-64 -64 -111
0 c-118 -1 -126 2 -126 51 0 34 -15 34 -63 -2 -44 -34 -154 -66 -191 -57 -19
5 -27 15 -31 40 -9 47 17 98 73 144 25 20 93 82 151 138 124 119 189 170 280
223 36 22 77 51 90 65 l25 26 -95 -6 c-52 -3 -114 -9 -139 -13 -65 -10 -135 3
-202 38 -201 106 -167 96 -323 97 -77 1 -189 5 -248 9 -108 7 -109 8 -155 47
-25 22 -54 51 -65 64 -24 31 -30 30 -90 -8 l-49 -31 -436 6 c-1824 28 -3402
204 -4816 538 -602 142 -1268 354 -1636 522 l-55 25 6 -157 c4 -110 11 -170
23 -202 16 -43 16 -52 2 -107 -13 -47 -14 -71 -5 -115 12 -67 3 -108 -45 -212
-35 -73 -75 -125 -99 -125 -44 0 -68 96 -47 186 19 78 8 95 -82 130 -40 15
-116 56 -168 91 -52 34 -110 66 -129 69 -33 7 -34 7 -27 -22 13 -50 24 -269
16 -318 -8 -56 -3 -91 16 -107 18 -15 18 -49 -1 -77 -12 -15 -14 -35 -10 -69
4 -32 1 -62 -9 -92 -9 -24 -16 -60 -16 -80 0 -20 -10 -56 -21 -81 -12 -25 -39
-97 -61 -160 -89 -258 -275 -668 -438 -968 -39 -70 -40 -77 -40 -160 1 -48 -4
-103 -10 -122 -7 -25 -7 -55 1 -107 16 -98 7 -206 -20 -264 -12 -25 -44 -72
-72 -105 -55 -63 -88 -125 -89 -162 0 -13 13 -51 29 -85 20 -42 33 -93 42
-158 l12 -96 -31 -55 c-37 -64 -39 -98 -13 -165 10 -26 21 -64 25 -84 3 -19
18 -51 32 -70 49 -65 77 -132 82 -196 6 -77 19 -90 62 -68 29 15 33 15 50 0
26 -24 62 -140 68 -224 l5 -73 -24 7 c-13 4 -39 19 -57 33 -48 37 -57 22 -44
-70 9 -57 16 -77 34 -90 49 -36 56 -47 63 -97 6 -46 4 -54 -19 -82 -24 -28
-25 -36 -20 -87 9 -75 21 -103 91 -209 95 -141 110 -172 118 -242 4 -35 16
-84 27 -108 16 -37 19 -57 13 -113 -7 -65 -6 -69 17 -84 13 -9 45 -22 71 -30
25 -8 70 -32 98 -55 28 -23 62 -41 74 -41 39 0 53 -10 105 -75 45 -58 54 -64
96 -71 59 -9 94 -39 114 -100 12 -39 21 -49 44 -55 42 -12 74 -46 112 -122 19
-37 50 -88 70 -114 42 -56 59 -93 73 -170 7 -32 16 -77 22 -100 l11 -41 92
-17 c319 -60 378 -66 498 -51 106 14 148 -6 148 -70 0 -20 5 -44 10 -55 13
-23 66 -51 139 -73 69 -20 305 -118 396 -163 38 -19 144 -84 235 -143 91 -59
188 -119 215 -133 67 -33 193 -72 312 -96 90 -18 714 -111 746 -111 10 0 16
21 21 77 3 42 9 79 12 82 3 3 51 7 107 9 136 4 345 -20 401 -48 28 -13 130
-107 292 -268 268 -265 294 -300 330 -432 44 -161 85 -215 242 -318 144 -93
172 -105 239 -100 68 6 96 31 123 113 39 116 73 134 256 133 l129 -1 75 -39
c75 -38 200 -147 200 -173 0 -7 16 -33 36 -56 20 -24 74 -120 121 -213 59
-118 99 -184 132 -220 68 -73 84 -100 124 -206 99 -266 188 -399 310 -461 21
-11 104 -37 185 -58 81 -22 174 -49 207 -60 89 -32 95 -30 95 28 0 35 -9 65
-30 106 -29 55 -30 63 -30 184 0 69 -1 149 -1 176 -1 77 12 199 22 211 6 7 26
15 45 19 28 5 39 13 49 39 8 18 21 39 30 46 9 7 23 26 31 42 8 15 38 43 67 62
33 20 59 46 66 65 17 39 68 71 113 71 72 0 368 168 409 232 16 27 19 44 15 93
-6 81 12 115 64 115 18 0 31 -9 43 -29 14 -24 25 -29 69 -34 45 -4 67 1 150
34 65 27 112 39 145 39 26 0 70 7 97 15 46 14 51 14 81 -5 18 -11 50 -20 71
-20 22 0 61 -7 88 -15 89 -27 119 -21 181 35 32 29 65 50 78 50 43 0 89 -19
128 -55 21 -19 46 -35 53 -35 8 0 45 -22 81 -50 93 -70 138 -100 151 -100 7 0
31 16 55 36 36 30 48 35 73 30 64 -13 69 -12 79 19 14 43 26 55 54 55 30 0 74
-22 138 -71 53 -40 119 -72 128 -63 13 13 -8 36 -52 58 -58 30 -89 63 -97 103
-6 32 -2 39 59 90 28 24 37 63 14 63 -7 0 -28 -11 -47 -25 -43 -32 -74 -32
-117 1 -19 15 -62 35 -95 45 -72 21 -108 52 -108 90 0 53 90 76 167 44 19 -8
63 -15 97 -15 49 0 69 5 98 25 39 26 113 45 179 45 37 0 139 23 159 35 6 4 19
24 30 46 36 69 91 65 147 -12 50 -69 77 -68 189 8 l52 35 45 -21 c49 -23 61
-21 119 17 44 29 76 26 137 -12 22 -14 67 -30 100 -35 67 -11 67 -11 129 -58
24 -18 49 -33 56 -33 7 0 38 -14 69 -30 88 -47 104 -43 181 44 70 78 114 106
165 106 36 0 211 -88 300 -150 33 -23 78 -64 102 -92 27 -33 61 -59 95 -75
107 -49 139 -125 133 -316 l-4 -121 40 0 c36 -1 42 -5 59 -40 17 -35 18 -46 8
-96 -17 -80 -16 -84 22 -103 27 -12 38 -26 47 -57 14 -46 50 -80 83 -80 32 0
73 -48 92 -105 25 -73 47 -99 119 -140 35 -19 84 -55 109 -79 24 -24 68 -62
98 -83 29 -22 70 -61 91 -87 32 -38 44 -46 71 -46 47 0 99 38 109 80 4 19 14
58 22 85 16 57 23 347 10 410 -14 71 -51 138 -140 255 -113 147 -145 214 -154
322 l-7 82 -69 60 c-118 104 -179 170 -213 234 -61 113 -162 374 -173 444 -6
37 -9 157 -7 265 3 193 4 199 31 254 36 75 87 131 210 232 112 92 240 222 282
286 20 29 29 58 32 103 5 56 12 73 62 147 l56 85 62 12 c65 13 135 48 170 86
12 13 30 47 41 76 35 91 142 218 243 286 l54 37 -54 -3 c-51 -3 -56 -1 -70 25
-16 27 -15 29 17 58 20 18 43 29 62 29 35 0 37 10 10 66 -14 28 -19 51 -14 68
8 34 37 50 63 36 32 -17 63 -11 118 20 85 48 98 97 25 92 -26 -2 -52 3 -71 14
-29 17 -30 17 -68 -9 -60 -42 -113 -31 -113 23 0 39 54 91 137 132 35 17 63
33 63 36 0 4 -15 22 -34 42 -48 49 -55 83 -22 105 29 19 34 52 10 62 -10 3
-49 -2 -89 -12 -67 -16 -73 -16 -103 -1 -34 17 -43 51 -21 73 9 9 8 18 -5 38
-20 31 -14 57 20 84 13 10 24 22 24 26 0 4 -16 25 -35 47 -26 31 -35 51 -37
87 l-3 46 -50 5 c-82 9 -125 44 -103 85 15 26 28 35 56 35 27 0 28 15 3 77
-11 30 -21 90 -25 162 -7 109 -6 115 19 167 40 82 102 118 135 79 19 -23 15
-57 -14 -99 -30 -44 -31 -49 -14 -79 7 -12 15 -49 19 -81 4 -36 21 -85 41
-125 29 -57 43 -72 104 -113 52 -34 75 -55 83 -79 10 -30 13 -32 27 -17 16 15
64 201 64 241 -2 64 -46 138 -158 261 -72 79 -112 140 -112 170 0 22 40 46 76
46 36 0 148 -54 196 -95 18 -15 42 -31 55 -36 13 -5 23 -15 23 -24 0 -8 6 -15
14 -15 16 0 26 44 19 81 -4 21 3 36 31 67 20 22 36 50 36 63 0 12 10 42 21 67
29 59 21 130 -21 189 -41 57 -144 274 -165 347 -23 78 -17 195 12 251 12 22
64 91 117 152 80 94 107 118 159 144 34 17 85 48 112 69 61 45 92 62 181 95
126 47 200 100 234 165 49 95 103 102 145 19 14 -27 29 -47 34 -45 5 3 14 26
20 50 12 50 51 102 84 112 24 7 57 33 57 44 0 12 -110 103 -117 97 -3 -4 4
-23 16 -43 29 -48 21 -77 -25 -99 -64 -30 -111 -10 -148 63 -9 18 -41 48 -70
68 -82 54 -89 83 -35 153 26 33 24 56 -11 125 -34 67 -39 129 -15 177 12 21
15 54 13 128 -3 93 -2 101 21 125 14 14 33 26 44 26 20 0 55 33 120 115 l39
50 -6 76 c-5 51 -3 84 5 102 13 28 66 52 96 43 34 -11 75 10 144 74 105 98
262 259 276 283 15 28 16 114 2 156 -7 19 -29 44 -55 62 l-44 30 -27 -20 c-39
-31 -68 -26 -117 19 -24 23 -72 52 -107 65 -79 31 -102 53 -130 124 -59 147
-177 335 -237 376 -38 26 -96 32 -138 15z"/>
<path d="M15383 17045 c-49 -21 -83 -59 -83 -94 0 -55 -90 -130 -157 -131 -26
0 -36 -16 -53 -88 -16 -69 -51 -109 -120 -139 -30 -14 -82 -45 -115 -69 -33
-25 -101 -72 -152 -104 -53 -35 -147 -112 -221 -183 -71 -67 -148 -137 -170
-155 -59 -46 -77 -123 -34 -136 28 -9 139 30 179 63 53 44 70 41 84 -14 l11
-45 96 1 96 1 72 69 c40 38 81 69 91 69 56 1 248 133 353 242 44 46 62 59 81
56 36 -5 34 -29 -8 -89 -29 -42 -37 -64 -37 -99 l-1 -45 35 2 c19 1 49 5 65 8
39 8 65 -18 72 -74 3 -23 10 -44 15 -47 5 -3 26 6 47 20 45 31 61 32 84 6 12
-15 29 -20 64 -20 25 0 61 -5 78 -11 28 -11 35 -9 54 10 11 11 25 21 30 21 5
0 30 20 55 44 37 36 56 46 103 56 32 6 93 29 136 50 83 43 119 49 139 24 44
-53 39 -51 145 -46 111 5 113 4 205 -65 67 -51 70 -69 18 -95 -36 -17 -127
-18 -261 -2 -48 5 -66 2 -135 -26 -43 -18 -117 -45 -164 -60 -67 -21 -88 -32
-97 -52 -22 -45 -38 -52 -72 -32 -30 18 -31 17 -54 -4 -13 -12 -33 -22 -44
-22 -28 0 -39 -16 -54 -75 -17 -68 -91 -214 -124 -245 -59 -54 -98 -198 -62
-228 20 -17 69 18 108 75 46 68 70 93 91 93 24 0 23 -17 -7 -96 -14 -36 -25
-78 -25 -92 0 -14 -9 -59 -20 -99 -20 -68 -20 -76 -6 -124 11 -37 14 -75 10
-138 -5 -72 -1 -113 26 -251 48 -246 57 -270 145 -377 71 -87 79 -93 113 -93
55 1 111 31 165 89 81 86 92 122 92 291 0 144 0 145 -33 210 -18 36 -46 88
-62 115 -19 32 -30 64 -30 90 0 21 -7 59 -16 82 -14 36 -15 50 -5 83 6 21 9
56 5 77 -6 41 46 274 67 299 17 21 57 17 69 -7 6 -11 19 -19 28 -17 16 3 25
28 42 122 6 31 22 65 45 95 28 35 35 52 30 71 -28 109 -18 120 102 120 67 0
93 -5 135 -25 29 -13 78 -27 110 -30 72 -8 122 -48 147 -120 10 -27 32 -72 49
-99 26 -40 32 -61 32 -103 0 -66 -17 -108 -75 -185 -37 -49 -45 -68 -45 -102
0 -52 31 -86 77 -86 35 0 73 38 125 122 29 46 54 68 78 68 18 0 110 -91 136
-135 21 -36 74 -260 74 -313 0 -9 11 -34 25 -54 34 -51 33 -86 -2 -94 -16 -3
-34 -8 -41 -10 -18 -5 -93 -170 -100 -216 l-5 -38 47 0 c26 0 61 -7 77 -16 17
-9 69 -18 119 -21 87 -6 89 -5 136 26 26 17 58 31 71 31 43 0 89 27 127 74 21
25 77 71 124 102 61 40 137 107 253 223 176 177 227 241 236 297 5 32 2 38
-52 88 -43 40 -57 60 -57 80 0 35 27 73 78 109 40 28 68 35 294 72 124 21 175
46 292 144 104 87 121 116 99 174 -6 16 -11 39 -11 52 0 15 -11 32 -30 45 -38
27 -38 57 -1 104 17 21 37 58 47 84 31 87 64 155 97 201 49 68 53 79 20 48
-17 -16 -58 -79 -91 -140 -78 -143 -93 -163 -181 -236 -51 -44 -83 -63 -111
-67 -22 -4 -48 -12 -57 -19 -17 -13 -17 -15 6 -39 21 -22 23 -29 13 -51 -14
-31 -48 -45 -108 -45 -55 0 -146 -30 -239 -78 -49 -25 -97 -64 -161 -127 -130
-129 -160 -199 -112 -260 20 -26 25 -27 80 -21 l58 6 0 -50 c0 -57 -16 -73
-85 -85 -62 -11 -91 -30 -132 -90 -46 -67 -81 -85 -164 -85 -107 0 -115 -7
-339 -302 -60 -79 -174 -134 -215 -105 -26 20 -11 52 40 82 60 35 71 56 48 96
-47 80 -53 97 -53 139 0 81 17 121 76 176 63 60 66 76 32 193 -26 91 -30 240
-9 346 16 87 5 136 -44 195 -37 44 -47 90 -19 90 26 0 56 -21 104 -73 l47 -51
131 -4 c156 -5 182 4 182 64 0 19 7 49 16 66 15 29 15 31 -9 57 -13 14 -34 41
-46 59 -15 21 -49 46 -94 68 -44 22 -98 61 -138 100 -37 35 -78 68 -92 73 -43
17 -129 15 -182 -4 -32 -11 -98 -19 -185 -24 -74 -4 -142 -11 -150 -16 -8 -6
-55 -10 -105 -11 -49 0 -123 -4 -163 -9 -67 -7 -78 -6 -144 21 -54 22 -75 36
-87 58 -9 17 -40 56 -69 87 -35 38 -57 72 -67 105 -9 31 -28 62 -51 84 -62 60
-79 90 -84 155 l-5 60 -47 3 c-39 3 -49 -1 -60 -17 -15 -25 -62 -28 -112 -7
-37 15 -101 76 -180 170 -61 72 -99 96 -152 96 -36 0 -45 -5 -68 -35 -31 -40
-60 -45 -78 -14 -10 15 -110 72 -122 69 0 -1 -16 -7 -33 -15z m1861 -899 c81
-73 52 -95 -114 -90 -91 3 -107 6 -118 23 -8 11 -11 25 -7 31 10 17 145 80
170 80 12 0 43 -20 69 -44z"/>
<path d="M17096 16129 c-32 -17 -56 -33 -53 -36 10 -10 207 -12 207 -2 0 14
-63 68 -80 68 -8 0 -41 -14 -74 -30z"/>
<path d="M20388 15137 c-20 -12 -61 -38 -90 -58 -29 -20 -75 -44 -103 -55 -34
-12 -75 -42 -130 -95 -45 -42 -96 -84 -115 -94 -42 -22 -25 -31 27 -15 52 17
91 43 261 177 81 63 162 123 179 131 33 16 44 32 21 32 -7 0 -30 -10 -50 -23z"/>
<path d="M6700 11070 c7 -12 18 -59 25 -105 12 -70 27 -109 101 -256 117 -234
134 -282 134 -373 0 -70 2 -76 36 -117 53 -64 63 -89 75 -196 11 -94 13 -99
48 -130 l36 -32 1 -94 c1 -108 9 -126 87 -188 76 -60 278 -354 344 -498 19
-42 43 -93 54 -113 10 -20 19 -49 19 -63 0 -55 -81 -169 -143 -201 -22 -12
-36 -13 -58 -5 -21 7 -29 7 -29 -2 0 -32 89 -142 230 -286 50 -50 90 -79 170
-121 87 -45 120 -69 190 -140 98 -99 145 -179 184 -314 33 -111 34 -211 5
-314 -27 -95 -19 -115 64 -168 100 -63 162 -120 359 -327 159 -166 193 -208
227 -274 42 -84 96 -163 110 -163 18 0 91 103 91 128 0 31 -123 254 -167 303
-21 23 -54 44 -93 58 -71 26 -122 74 -156 146 -28 59 -29 67 -9 105 14 28 14
33 -11 81 -19 36 -29 74 -34 128 -5 60 -13 87 -38 126 -17 28 -33 72 -37 100
-9 60 -21 85 -96 196 -31 47 -95 162 -142 255 -47 93 -121 224 -165 291 -65
100 -84 137 -101 205 -50 189 -67 227 -181 403 -156 241 -364 580 -378 617
-13 33 -14 55 -4 144 10 89 9 111 -4 147 -8 23 -17 76 -20 117 -3 41 -12 102
-20 135 -13 59 -11 98 9 122 5 8 6 36 2 68 -7 61 5 90 35 80 9 -3 46 -34 81
-69 59 -59 71 -66 151 -90 146 -45 270 -145 302 -244 9 -26 27 -119 42 -207
55 -339 99 -452 290 -748 60 -92 129 -199 152 -237 25 -41 70 -92 105 -123
142 -121 171 -157 196 -237 32 -102 45 -125 113 -200 32 -36 72 -91 88 -124
39 -77 47 -86 80 -86 43 0 87 -53 112 -133 18 -60 20 -83 14 -172 l-7 -103 28
-21 c15 -12 71 -52 123 -89 128 -89 199 -162 238 -242 45 -94 80 -137 325
-397 221 -235 276 -299 350 -408 22 -33 68 -98 102 -145 75 -101 127 -195 155
-275 11 -33 46 -102 77 -153 56 -92 57 -96 61 -180 3 -79 1 -92 -22 -135 -17
-31 -26 -64 -26 -93 0 -37 -6 -51 -36 -84 -30 -33 -35 -46 -31 -69 10 -50 209
-340 289 -421 85 -87 145 -122 246 -145 86 -20 113 -40 187 -141 84 -113 157
-144 369 -159 121 -8 229 -35 307 -76 33 -18 117 -74 187 -125 219 -161 420
-241 742 -295 101 -17 135 -29 280 -95 266 -122 279 -125 532 -137 269 -13
273 -12 399 109 100 96 110 100 274 98 222 -3 352 -41 546 -164 70 -44 131
-80 136 -80 5 0 32 -18 62 -40 29 -22 59 -40 67 -40 8 0 14 -4 14 -8 0 -4 14
-16 31 -26 16 -10 57 -40 90 -67 l59 -50 0 40 c0 72 29 195 61 255 18 36 36
92 45 143 19 109 26 126 66 156 36 27 125 57 171 57 19 0 38 10 57 30 59 63
47 115 -44 204 -99 96 -154 184 -143 227 4 13 20 31 36 41 26 14 29 21 28 60
-4 92 72 145 247 173 54 8 102 18 107 21 5 3 54 13 109 24 121 23 171 49 211
110 16 25 40 60 52 79 40 62 83 101 111 101 15 0 53 -18 87 -42 35 -25 62 -38
67 -32 14 15 32 374 32 639 0 284 6 320 65 417 85 137 38 283 -98 305 -48 7
-172 -27 -350 -98 -83 -34 -210 -81 -282 -106 -143 -49 -224 -92 -259 -138
-40 -53 -48 -96 -45 -243 2 -97 -3 -189 -19 -316 -30 -243 -33 -253 -95 -322
-17 -20 -52 -69 -77 -109 -35 -56 -62 -86 -120 -129 -41 -31 -80 -56 -87 -56
-15 0 -25 16 -32 54 -5 24 -14 34 -41 42 -43 14 -63 7 -137 -50 -40 -31 -81
-51 -133 -67 -41 -12 -154 -56 -250 -97 -248 -108 -242 -107 -515 -3 -60 24
-141 52 -179 62 -97 28 -141 53 -167 96 -12 21 -57 88 -99 148 -42 61 -107
161 -144 223 -42 70 -96 143 -145 195 -43 45 -104 120 -136 167 -58 84 -59 86
-60 161 -2 101 -29 151 -105 194 -110 61 -139 144 -115 327 19 140 19 265 1
343 -26 109 -49 336 -42 420 21 286 53 475 96 557 l19 37 -57 21 c-31 12 -106
35 -167 51 -271 74 -302 89 -386 193 -57 70 -135 216 -178 334 -44 118 -66
156 -126 222 -41 44 -76 102 -140 229 -46 93 -97 185 -113 203 -15 18 -40 51
-55 73 -42 63 -95 109 -173 149 -69 36 -74 37 -200 41 -178 5 -197 -6 -234
-132 -24 -78 -109 -132 -189 -118 -43 7 -183 84 -265 144 -105 78 -149 143
-185 274 -39 144 -52 161 -335 443 -258 258 -262 261 -321 277 -123 32 -413
49 -433 24 -6 -7 -14 -46 -19 -87 -7 -66 -11 -75 -28 -73 -64 7 -278 36 -460
63 -483 71 -558 96 -820 270 -74 49 -165 106 -201 126 -96 54 -313 146 -432
184 -128 41 -167 72 -177 144 -10 66 -25 71 -160 52 -89 -12 -114 -13 -139 -2
-17 7 -60 16 -96 20 -36 4 -94 13 -130 21 -36 7 -89 16 -118 20 -53 7 -54 7
-42 -15z"/>
<path d="M18815 7479 c-22 -5 -87 -25 -145 -43 -58 -19 -128 -37 -157 -41 -55
-7 -71 -17 -230 -131 -107 -78 -243 -204 -243 -225 0 -8 -14 -32 -30 -53 -33
-44 -37 -64 -15 -72 22 -9 60 20 85 65 29 50 76 76 178 94 45 9 90 22 100 29
10 7 46 46 81 85 34 40 71 77 82 83 10 6 86 16 167 21 128 9 152 8 185 -5 60
-26 42 -76 -27 -76 -49 0 -19 -61 39 -80 27 -9 52 -8 125 6 76 15 100 16 154
6 35 -7 89 -12 120 -12 44 0 68 -6 101 -26 24 -14 52 -24 62 -23 10 2 48 -11
84 -29 88 -44 176 -52 276 -24 115 33 136 22 270 -135 78 -91 130 -113 280
-120 159 -8 193 -26 193 -107 0 -29 -10 -47 -50 -91 -27 -30 -50 -64 -50 -75
0 -11 2 -20 4 -20 2 0 60 21 128 47 111 42 130 47 198 45 41 -1 164 5 274 13
196 15 200 15 260 49 34 19 84 40 111 47 109 26 138 62 61 73 -28 5 -62 21
-97 47 -64 48 -121 79 -146 79 -10 0 -47 -9 -81 -20 -35 -11 -72 -20 -81 -20
-32 0 -52 25 -59 75 l-7 50 -135 8 c-159 9 -211 23 -343 89 -130 65 -169 80
-388 149 -227 71 -251 77 -381 88 -94 8 -115 14 -233 66 -71 31 -159 65 -195
75 -118 34 -446 58 -525 39z"/>
<path d="M23050 7128 c-78 -28 -186 -35 -245 -15 -46 16 -47 16 -71 -8 -30
-30 -30 -53 -3 -175 13 -60 18 -112 15 -140 -3 -25 -10 -92 -15 -150 -9 -104
-9 -105 20 -160 16 -30 29 -67 29 -81 0 -19 12 -36 47 -63 92 -72 142 -28 98
86 -9 25 -15 58 -13 74 2 24 9 31 42 39 26 6 48 22 69 47 37 46 61 48 126 12
l47 -27 44 32 c24 17 60 36 81 41 21 6 61 28 90 50 36 27 70 43 108 50 31 6
70 15 87 21 49 15 67 11 112 -22 72 -53 112 -32 128 69 6 38 4 42 -19 51 -30
12 -87 63 -87 79 0 19 -62 32 -149 32 -101 0 -128 13 -133 62 l-3 33 -96 15
c-72 11 -106 22 -136 43 -47 33 -94 34 -173 5z"/>
<path d="M22416 7083 c-18 -9 -71 -19 -133 -23 -97 -7 -153 -25 -153 -49 0 -4
25 -11 55 -14 30 -3 67 -11 82 -19 35 -16 69 -83 84 -163 10 -55 17 -64 79
-125 37 -36 73 -75 79 -87 15 -30 14 -79 -4 -113 -28 -55 -61 -64 -260 -70
-100 -4 -193 -12 -208 -18 -16 -7 -60 -12 -98 -12 -84 0 -89 -14 -29 -71 54
-52 79 -57 126 -26 56 36 130 55 286 71 76 8 143 18 150 22 13 8 242 7 271 -2
27 -8 21 32 -12 85 l-30 46 11 130 c16 182 13 236 -12 316 -25 76 -24 75 -143
118 -68 25 -102 26 -141 4z"/>
<path d="M24635 6994 c-89 -25 -239 -63 -264 -66 -15 -2 -31 -15 -43 -37 -19
-33 -19 -33 2 -55 11 -11 33 -37 49 -56 l29 -34 98 17 c78 14 113 26 164 57
91 53 109 70 116 107 5 26 1 37 -19 57 -30 30 -57 32 -132 10z"/>
<path d="M18520 6946 c0 -7 9 -25 21 -40 11 -15 18 -33 15 -42 -9 -22 21 -28
49 -10 33 22 31 49 -6 80 -33 28 -79 35 -79 12z"/>
<path d="M20610 5850 c-36 -10 -75 -19 -88 -19 -12 -1 -39 -16 -59 -35 l-38
-34 45 -12 c27 -7 63 -29 93 -56 78 -70 137 -67 234 12 23 19 70 48 104 63 57
26 60 29 45 44 -48 48 -231 68 -336 37z"/>
<path d="M16391 5284 c-12 -15 -21 -32 -21 -39 0 -7 -7 -19 -16 -26 -9 -7 -34
-39 -55 -71 -21 -31 -52 -65 -69 -75 -35 -21 -36 -26 -10 -135 22 -95 60 -353
60 -412 0 -77 21 -166 47 -197 29 -34 43 -38 36 -8 -4 15 7 32 44 67 51 48 75
85 88 137 12 51 6 314 -10 374 -26 102 -67 356 -61 384 7 34 -7 35 -33 1z"/>
<path d="M16078 5030 c-26 -5 -69 -15 -95 -24 -27 -8 -84 -18 -128 -22 -148
-12 -224 -65 -225 -157 0 -29 -8 -45 -35 -73 -19 -19 -35 -39 -35 -43 0 -19
87 -137 151 -206 81 -87 92 -121 60 -184 -27 -52 -52 -68 -128 -80 -75 -12
-129 -36 -149 -66 -8 -13 -24 -66 -34 -119 -11 -55 -32 -119 -49 -150 -41 -78
-68 -230 -51 -291 14 -51 38 -69 195 -151 69 -35 131 -58 199 -74 90 -21 105
-22 163 -10 50 10 70 10 93 0 24 -10 33 -9 59 6 27 16 31 16 53 2 24 -16 25
-16 36 27 7 26 30 63 60 96 84 95 107 144 123 273 12 95 35 143 105 219 78 84
101 117 115 166 11 36 11 44 -2 51 -8 5 -25 18 -38 29 -15 13 -39 21 -65 22
-103 3 -131 13 -155 52 -21 35 -27 66 -62 352 -19 157 -36 255 -57 330 -9 34
-27 38 -104 25z"/>
<path d="M17830 4500 c-14 -4 -53 -8 -88 -9 -44 -1 -75 -8 -105 -23 -32 -17
-67 -24 -142 -28 -97 -6 -104 -9 -235 -71 l-135 -64 -110 -1 c-66 0 -119 -6
-133 -13 -13 -7 -36 -34 -53 -61 -43 -70 -77 -79 -159 -45 -35 15 -66 23 -70
18 -4 -4 -13 -26 -20 -48 -15 -47 -42 -85 -127 -177 -67 -74 -78 -99 -87 -200
-4 -37 -9 -74 -12 -82 -4 -10 16 -26 63 -52 37 -21 111 -67 163 -102 l94 -64
66 6 c36 3 80 8 97 12 71 14 103 -17 103 -99 0 -40 2 -43 45 -61 54 -21 85
-58 85 -97 0 -33 11 -35 75 -18 58 16 101 65 121 138 10 35 31 77 49 99 17 20
45 57 62 82 44 64 69 85 143 116 36 15 83 40 105 54 22 15 65 35 95 45 91 29
120 66 140 180 15 86 35 103 148 121 116 18 124 22 197 78 125 95 130 101 118
128 -7 15 -40 39 -84 63 -41 21 -123 71 -182 112 -98 66 -113 73 -155 72 -26
-1 -58 -5 -72 -9z"/>
<path d="M18269 4154 c-90 -79 -160 -112 -260 -123 -101 -11 -118 -25 -128
-107 -12 -106 -59 -160 -166 -194 -22 -7 -59 -26 -81 -41 -23 -16 -68 -38
-100 -50 -80 -30 -99 -44 -128 -93 -14 -24 -41 -62 -60 -85 -20 -23 -42 -64
-50 -90 -35 -118 -100 -181 -187 -181 -48 0 -34 -36 31 -86 31 -23 77 -69 103
-103 26 -33 67 -74 91 -91 23 -17 59 -51 80 -76 21 -25 63 -62 94 -82 73 -47
265 -206 284 -233 l14 -22 39 20 c66 33 93 35 197 17 97 -17 99 -17 172 4 41
12 94 22 118 22 37 0 145 24 156 35 2 2 -3 16 -11 32 -20 39 -28 157 -31 463
-3 252 -4 270 -30 370 -41 157 -44 227 -13 335 50 175 45 249 -20 353 -21 34
-41 61 -44 62 -3 0 -34 -25 -70 -56z"/>
<path d="M16320 3612 c-14 -25 -49 -74 -78 -108 -47 -56 -72 -104 -72 -141 0
-7 17 -24 38 -38 34 -22 48 -25 118 -23 70 1 88 -3 159 -32 74 -32 88 -34 195
-35 63 -1 139 -5 167 -10 76 -11 81 -4 76 108 -6 123 -9 136 -38 143 -13 3
-56 -1 -95 -10 -89 -21 -126 -12 -208 48 -48 36 -114 76 -232 142 -3 1 -17
-18 -30 -44z"/>
<path d="M18460 2559 c-30 -10 -80 -19 -111 -19 -31 0 -88 -9 -125 -21 -51
-16 -82 -20 -124 -15 -180 19 -176 20 -232 -4 l-54 -22 12 -52 c6 -28 16 -86
22 -128 19 -148 78 -226 187 -248 28 -5 60 -12 72 -16 19 -5 23 0 33 35 13 50
34 71 68 71 32 -1 48 -12 87 -63 15 -21 51 -50 79 -64 28 -14 65 -36 82 -48
16 -13 48 -30 69 -39 21 -9 69 -41 106 -71 59 -48 70 -63 84 -107 8 -28 15
-59 15 -68 0 -24 31 -49 71 -56 19 -3 53 -12 77 -20 71 -23 79 -20 87 34 14
91 7 157 -25 236 -34 87 -36 102 -15 170 8 27 15 52 15 56 0 4 -33 24 -74 43
-40 19 -82 47 -92 62 -11 14 -40 51 -66 82 -26 31 -57 81 -69 112 -18 50 -80
143 -112 170 -8 6 -30 3 -67 -10z"/>
<path d="M20239 2280 c-111 -20 -152 -70 -116 -140 12 -24 17 -25 107 -26 88
-1 162 -11 201 -28 9 -4 31 -36 48 -71 36 -72 59 -91 131 -106 61 -13 71 -28
63 -101 -5 -47 -2 -60 19 -94 14 -21 31 -61 38 -87 8 -28 23 -56 38 -68 24
-18 26 -18 44 -3 10 10 18 23 18 30 0 8 26 44 59 82 74 86 91 119 91 178 0
129 -114 234 -413 380 -107 52 -121 56 -198 59 -46 2 -105 0 -130 -5z"/>
<path d="M18950 2048 c-6 -24 -13 -49 -15 -56 -3 -7 11 -60 31 -118 33 -99 34
-111 28 -190 l-7 -84 125 0 c174 0 318 -39 407 -111 39 -31 40 -31 123 -24
100 8 108 3 132 -95 9 -36 25 -74 36 -84 16 -17 22 -17 48 -7 42 18 124 98
120 118 -2 9 -30 35 -63 57 -66 46 -85 73 -85 128 0 62 17 89 125 194 84 82
105 108 110 138 6 30 3 43 -14 66 -11 16 -21 40 -21 53 0 64 -85 60 -184 -8
-35 -24 -77 -50 -93 -59 -17 -8 -57 -37 -89 -64 -66 -55 -113 -82 -142 -82
-11 0 -49 14 -86 31 -62 29 -68 30 -118 19 -85 -19 -97 -14 -153 70 -44 66
-59 80 -120 112 -38 21 -73 38 -77 38 -4 0 -12 -19 -18 -42z"/>
</g>
</svg>
